<?xml version="1.0" standalone="no"?>
<!DOCTYPE svg PUBLIC "-//W3C//DTD SVG 20010904//EN"
 "http://www.w3.org/TR/2001/REC-SVG-20010904/DTD/svg10.dtd">
<svg version="1.0" xmlns="http://www.w3.org/2000/svg"
 width="1024.000000pt" height="1024.000000pt" viewBox="0 0 1024.000000 1024.000000"
 preserveAspectRatio="xMidYMid meet">
<metadata>
Created by potrace 1.16, written by Peter Selinger 2001-2019
</metadata>
<g transform="translate(0.000000,1024.000000) scale(0.100000,-0.100000)"
fill="#000000" stroke="none">
<path d="M9508 10212 c5 -25 4 -26 -13 -12 -15 12 -14 7 4 -19 15 -20 20 -36
14 -40 -7 -4 -5 -11 5 -21 14 -13 15 -13 10 1 -4 9 -1 16 6 16 8 0 11 -9 8
-24 -2 -13 -9 -20 -16 -17 -6 3 -2 -2 8 -10 15 -12 16 -16 5 -16 -12 0 -12 -2
1 -10 8 -5 11 -12 7 -16 -4 -4 -2 -13 4 -20 15 -19 -7 -58 -29 -49 -13 5 -12
2 3 -13 20 -19 32 -22 50 -10 14 8 13 -44 0 -55 -5 -5 5 -5 22 -2 27 5 32 4
27 -9 -3 -9 -10 -14 -14 -11 -5 3 -8 -3 -7 -13 1 -14 7 -17 29 -14 32 5 35 -3
10 -26 -10 -10 -12 -13 -5 -8 8 5 13 4 13 -3 0 -7 5 -9 10 -6 6 3 10 1 10 -4
0 -6 7 -11 16 -11 8 0 12 -4 9 -10 -3 -5 4 -11 17 -11 17 -1 18 -3 6 -6 -10
-2 -18 -5 -18 -6 0 -1 4 -18 10 -36 7 -24 6 -39 -2 -48 -8 -11 -7 -12 6 -7 12
5 16 14 13 30 -2 13 0 24 4 24 5 0 9 -10 9 -22 l0 -22 16 22 c16 23 34 29 34
12 0 -5 -7 -10 -15 -10 -8 0 -15 -5 -15 -11 0 -5 5 -7 12 -3 7 5 8 3 3 -6 -6
-10 -4 -12 9 -7 11 5 16 3 14 -5 -2 -6 -14 -13 -27 -15 -13 -2 -20 1 -16 7 3
6 -1 7 -9 4 -19 -7 -21 -24 -3 -25 16 -2 18 -2 52 6 27 6 28 5 13 -8 -10 -8
-15 -17 -11 -20 3 -4 0 -7 -7 -7 -7 0 -10 -3 -7 -6 4 -4 13 -1 22 6 13 11 14
10 9 -4 -3 -9 -10 -16 -15 -16 -5 0 -9 -5 -9 -11 0 -5 5 -7 10 -4 6 3 10 1 10
-4 0 -6 7 -11 15 -11 8 0 15 -5 15 -11 0 -5 3 -8 8 -5 4 2 16 -3 27 -11 16
-13 17 -15 3 -10 -29 10 -21 -18 8 -32 15 -6 24 -14 21 -17 -3 -3 -18 2 -33
12 l-27 18 13 -23 c11 -21 10 -23 -5 -17 -12 4 -8 -5 11 -27 16 -19 32 -32 37
-30 4 2 7 -3 7 -11 0 -9 -6 -16 -12 -17 -7 0 -3 -5 10 -11 12 -6 22 -17 22
-25 0 -8 -4 -12 -9 -8 -5 3 -12 1 -16 -5 -4 -6 -11 -8 -16 -4 -6 4 -5 11 2 20
10 12 10 15 -1 12 -8 -2 -14 2 -15 9 0 19 -9 22 -22 8 -10 -11 -9 -15 7 -20
11 -4 18 -11 14 -16 -3 -5 -9 -7 -14 -4 -5 3 -11 1 -14 -4 -7 -11 37 -23 61
-15 10 3 7 -2 -7 -10 -14 -8 -19 -15 -12 -16 7 0 10 -5 6 -11 -4 -7 -1 -10 7
-7 8 3 13 11 12 17 -2 6 1 11 5 11 19 0 20 -13 2 -33 -11 -11 -18 -23 -15 -26
3 -2 11 4 19 14 12 17 14 16 18 -13 4 -27 2 -30 -14 -21 -13 7 -16 6 -12 -4 3
-8 -2 -17 -10 -20 -10 -4 -13 -1 -10 8 3 8 -1 24 -10 37 l-16 22 0 -21 c0 -12
5 -25 11 -29 8 -4 7 -9 -2 -15 -10 -6 -11 -9 -1 -9 18 0 15 -18 -5 -23 -16 -4
-16 -5 1 -6 13 -1 17 -6 13 -21 -3 -11 0 -23 5 -27 6 -3 8 -1 5 4 -4 6 0 14 9
17 31 12 37 6 13 -15 -13 -11 -31 -18 -41 -16 -21 6 -23 -4 -6 -21 8 -8 8 -15
0 -25 -7 -8 -9 -17 -6 -20 8 -8 55 23 50 32 -3 4 -1 13 4 21 7 11 11 11 23 1
12 -9 16 -9 20 1 4 10 6 10 6 0 1 -7 -10 -17 -23 -23 -21 -10 -24 -20 -17 -62
0 -5 6 -5 11 -2 6 3 10 -1 10 -10 0 -10 5 -13 13 -9 6 4 8 3 4 -1 -11 -12 -38
-15 -31 -4 3 5 -2 12 -10 15 -9 3 -13 10 -10 15 3 5 -2 9 -11 9 -12 0 -13 -4
-7 -17 5 -10 7 -24 4 -32 -2 -8 0 -11 6 -8 8 6 27 -33 19 -39 -11 -9 -47 -13
-47 -6 0 17 -28 21 -34 5 -5 -11 -2 -14 9 -9 22 8 30 -20 16 -51 -7 -16 -17
-23 -27 -19 -9 3 -12 2 -9 -5 4 -6 13 -8 20 -5 7 2 12 -2 11 -11 0 -9 5 -18
13 -21 10 -3 13 1 9 15 -4 14 0 19 14 20 16 2 17 -1 8 -13 -7 -8 -9 -14 -4
-14 5 0 1 -5 -9 -11 -9 -6 -15 -14 -13 -18 8 -12 -28 -9 -36 3 -5 7 -8 5 -8
-5 0 -9 -9 -24 -20 -34 -20 -18 -21 -18 -14 1 6 15 4 17 -6 7 -11 -10 -17 -10
-31 3 -13 12 -19 12 -25 3 -4 -7 -3 -10 4 -5 6 3 13 2 16 -3 3 -5 -5 -11 -19
-13 -13 -3 -23 -1 -22 5 1 5 -4 12 -10 14 -7 3 -13 -3 -13 -11 0 -9 6 -19 14
-22 17 -6 14 -36 -4 -42 -8 -3 -4 -11 12 -26 13 -11 18 -17 11 -12 -8 5 -28
10 -47 11 l-33 3 23 -26 c14 -14 22 -28 19 -31 -4 -3 -10 1 -15 9 -12 19 -37
21 -45 3 -3 -9 -3 -18 0 -21 3 -3 5 0 5 6 0 7 5 12 11 12 8 0 8 -4 0 -13 -7
-9 -7 -17 0 -24 6 -6 5 -10 -5 -10 -8 0 -14 3 -13 6 1 3 -2 6 -8 6 -5 0 -9 -3
-7 -7 1 -5 -3 -8 -9 -8 -5 0 -7 -4 -4 -10 3 -5 -2 -10 -11 -10 -10 0 -14 -3
-11 -6 3 -4 2 -15 -4 -25 -7 -14 -6 -19 4 -19 8 0 21 -8 28 -17 11 -15 11 -16
-1 -5 -8 6 -22 12 -32 12 -10 0 -18 7 -18 15 0 17 -25 20 -35 5 -3 -5 -1 -10
6 -10 8 0 7 -6 -4 -18 -9 -9 -14 -26 -13 -37 2 -11 -2 -26 -8 -34 -9 -12 -8
-13 4 -7 8 4 6 0 -5 -9 -11 -9 -19 -21 -17 -26 1 -6 -6 -8 -19 -4 -16 5 -19 4
-14 -5 6 -10 1 -12 -20 -7 -32 6 -55 0 -55 -15 0 -5 4 -7 9 -3 14 8 21 -9 10
-25 -7 -13 -9 -13 -9 0 0 13 -1 13 -10 0 -14 -21 -12 -30 4 -24 9 3 13 -2 12
-18 0 -13 -5 -23 -11 -24 -22 -1 -95 -25 -95 -31 0 -3 13 -3 30 0 28 6 29 6
12 -11 -9 -10 -19 -15 -22 -12 -12 15 -37 17 -37 4 0 -7 9 -16 19 -20 18 -5
16 -24 -3 -24 -6 0 -8 4 -5 9 3 5 -3 11 -15 14 -16 4 -18 3 -9 -8 9 -11 7 -12
-9 -8 -12 3 -18 10 -14 17 3 6 2 8 -2 3 -5 -4 -10 -16 -12 -26 -2 -14 2 -18
16 -14 22 6 37 -12 20 -23 -8 -4 -9 -3 -5 4 4 7 1 12 -9 12 -9 0 -14 -4 -11
-8 2 -4 -5 -9 -17 -9 -13 -1 -17 1 -10 5 7 4 9 13 4 21 -6 9 -10 7 -14 -8 -4
-15 1 -25 15 -32 17 -9 18 -13 7 -20 -20 -13 -41 -11 -33 3 4 6 3 8 -4 4 -6
-3 -9 -18 -6 -32 3 -18 1 -23 -7 -18 -8 5 -10 2 -6 -8 3 -10 0 -15 -10 -14 -9
0 -18 -5 -21 -13 -3 -10 2 -11 19 -7 16 4 12 0 -11 -13 -19 -10 -39 -17 -44
-14 -5 4 -6 1 -2 -5 5 -9 13 -9 27 -2 10 6 19 8 19 6 0 -3 -12 -12 -27 -20
-16 -8 -22 -15 -15 -16 6 0 12 -8 12 -17 0 -15 -2 -16 -10 -3 -8 13 -10 12
-10 -2 0 -10 5 -18 10 -18 6 0 1 -9 -10 -20 -12 -12 -18 -26 -14 -32 4 -7 3
-8 -4 -4 -7 4 -22 0 -34 -9 -13 -9 -16 -15 -8 -13 9 2 18 -1 20 -7 3 -5 -5
-11 -17 -13 -13 -2 -23 -10 -23 -18 0 -8 4 -13 9 -9 5 3 13 0 17 -7 4 -7 4
-10 -1 -6 -4 4 -15 3 -22 -4 -11 -9 -17 -9 -24 3 -8 10 -9 9 -4 -8 4 -15 0
-25 -12 -32 -14 -8 -15 -11 -3 -12 8 -1 17 -1 20 -1 3 0 7 -8 7 -19 2 -17 -1
-18 -13 -8 -12 10 -13 9 -8 -6 6 -14 3 -16 -17 -11 -13 3 -18 3 -11 0 6 -3 12
-10 12 -15 0 -6 -4 -8 -9 -4 -5 3 -12 1 -16 -5 -3 -6 4 -10 17 -10 l22 0 -22
-16 c-13 -9 -29 -14 -36 -11 -10 4 -12 -7 -11 -44 2 -53 -7 -68 -30 -49 -10 8
-15 8 -21 -1 -4 -7 -3 -9 3 -6 6 4 16 0 22 -7 8 -10 9 -16 1 -21 -19 -12 -11
-27 11 -20 20 7 21 5 15 -26 -4 -19 -7 -45 -7 -59 0 -15 -3 -19 -6 -10 -8 19
-33 44 -33 33 0 -5 6 -15 13 -22 10 -11 7 -12 -13 -6 -14 3 -20 3 -14 -2 6 -4
17 -19 24 -33 7 -14 9 -22 5 -18 -4 4 -16 -2 -26 -14 -20 -22 -24 -38 -11 -38
12 0 13 -78 1 -86 -7 -4 -9 0 -5 13 4 11 2 31 -3 44 -7 17 -10 19 -10 7 -1
-10 -6 -18 -11 -18 -7 0 -7 -6 0 -19 5 -11 7 -28 4 -38 -5 -15 -4 -15 5 -3 12
17 10 21 16 -50 2 -19 1 -27 -2 -17 -8 29 -20 19 -15 -13 2 -16 8 -28 12 -25
5 3 12 0 16 -6 4 -8 3 -9 -4 -5 -7 4 -12 1 -12 -9 0 -8 6 -18 14 -21 11 -4 13
-12 6 -30 -6 -16 -6 -24 1 -24 6 0 7 -5 4 -10 -4 -7 -14 -6 -28 1 -21 11 -21
11 -6 -7 10 -12 15 -34 14 -61 -2 -33 1 -42 16 -46 11 -3 19 -13 18 -24 0 -14
-2 -15 -7 -3 -6 14 -14 15 -47 11 -5 -1 -3 -6 5 -11 13 -9 13 -11 0 -20 -12
-8 -12 -10 -1 -10 8 0 11 -7 8 -20 -3 -11 -2 -18 3 -15 4 3 14 -3 21 -12 10
-12 10 -14 2 -9 -7 4 -13 2 -13 -3 0 -6 10 -11 23 -11 l22 0 -25 -21 c-24 -20
-24 -20 -2 -14 18 5 22 2 22 -14 0 -12 -7 -21 -15 -21 -9 0 -12 -6 -9 -15 4
-8 1 -15 -7 -15 -7 0 -10 -3 -6 -6 3 -3 15 -3 28 1 17 6 19 9 8 17 -12 8 -12
9 0 6 22 -6 25 -28 4 -28 -17 -1 -17 -2 2 -16 20 -15 20 -15 -2 -20 -28 -8
-36 -29 -16 -46 9 -7 18 -12 20 -10 8 6 23 1 23 -8 0 -5 -3 -9 -7 -9 -22 4
-24 -3 -7 -22 19 -21 19 -22 -4 -14 -23 7 -23 6 -6 -14 11 -13 21 -17 25 -10
3 6 9 0 13 -13 5 -19 8 -21 17 -8 9 13 10 13 6 -2 -3 -9 -1 -19 6 -22 7 -3 0
-3 -15 -1 -16 2 -28 -1 -28 -6 0 -5 12 -10 28 -10 16 -1 20 -3 10 -6 -10 -2
-18 -11 -18 -19 0 -8 5 -12 10 -9 6 3 10 1 10 -4 0 -6 -7 -11 -16 -11 -8 0
-12 -5 -9 -10 4 -6 2 -17 -4 -24 -8 -9 -7 -13 4 -13 7 0 14 3 13 6 -2 22 4 22
15 1 9 -17 10 -27 3 -32 -7 -5 -6 -8 3 -8 11 0 10 -5 -5 -22 -10 -13 -12 -17
-4 -10 21 18 28 15 22 -13 -3 -17 0 -25 8 -23 7 2 15 -3 18 -11 2 -8 0 -11 -6
-7 -5 3 -12 0 -15 -8 -3 -8 1 -13 10 -12 9 0 18 -4 20 -11 3 -7 -3 -10 -16 -6
-16 4 -19 1 -14 -17 3 -12 9 -17 12 -11 9 14 34 -4 29 -20 -3 -8 2 -20 11 -27
15 -11 14 -12 0 -6 -24 8 -32 -11 -12 -27 12 -10 14 -10 9 -1 -4 6 -3 12 2 12
6 0 9 -11 8 -24 0 -13 -4 -22 -8 -19 -5 2 -8 -3 -8 -12 0 -11 5 -15 14 -12 10
4 13 1 9 -8 -3 -8 -8 -13 -12 -11 -3 2 -6 -8 -6 -24 -1 -20 3 -26 13 -22 10 3
11 7 2 12 -8 5 -8 10 -2 14 5 3 12 -1 16 -9 3 -8 1 -17 -4 -20 -6 -4 -5 -14 2
-25 7 -10 17 -16 23 -12 5 3 4 -1 -2 -9 -13 -17 -13 -79 0 -79 5 0 5 -4 2 -10
-3 -5 0 -10 7 -10 9 0 9 -3 -2 -10 -8 -5 -11 -10 -6 -10 5 0 4 -6 -2 -13 -12
-14 -4 -31 18 -40 13 -5 13 -6 0 -6 -16 -1 -26 -41 -10 -41 14 0 21 -32 9 -46
-9 -10 -8 -15 2 -19 10 -4 14 -22 13 -58 -1 -28 1 -46 3 -39 3 6 9 12 14 12 6
0 6 -8 -1 -19 -14 -27 -13 -36 4 -22 12 10 13 8 9 -9 -3 -12 -11 -19 -18 -16
-8 3 -16 -1 -18 -8 -3 -8 1 -13 11 -12 9 0 18 -7 20 -18 3 -12 0 -16 -8 -11
-9 6 -9 3 -1 -12 8 -15 7 -25 -4 -39 -22 -29 -18 -39 5 -13 l20 24 -3 -22 c-2
-12 -6 -25 -10 -29 -3 -4 1 -20 9 -37 15 -28 15 -29 -1 -23 -16 6 -16 4 -4
-10 13 -16 12 -16 -8 -6 -18 10 -21 9 -18 -6 1 -9 8 -16 15 -14 8 2 10 -3 7
-13 -4 -8 -2 -15 3 -15 6 0 10 -7 10 -15 0 -8 -4 -15 -9 -15 -6 0 -9 -9 -8
-20 1 -11 5 -20 9 -20 4 0 4 -7 1 -17 -4 -11 -3 -14 5 -9 7 4 12 1 12 -9 0 -9
-4 -14 -8 -11 -4 2 -8 -4 -9 -14 -1 -11 2 -22 8 -25 5 -4 3 -18 -6 -35 -17
-33 -20 -54 -5 -45 6 3 10 1 10 -5 0 -6 4 -9 9 -6 5 4 7 -4 3 -16 -4 -17 -2
-20 11 -15 11 4 14 2 10 -9 -3 -8 -12 -13 -19 -10 -7 3 -16 1 -19 -3 -2 -5 3
-11 13 -13 10 -3 18 -15 19 -29 2 -17 0 -20 -6 -10 -7 11 -10 10 -13 -5 -2
-10 3 -24 12 -31 12 -10 12 -12 1 -13 -11 0 -10 -5 4 -20 12 -13 14 -20 5 -20
-6 0 -10 -6 -7 -14 3 -8 1 -16 -5 -18 -7 -3 -1 -14 12 -26 19 -18 21 -22 7
-22 -10 0 -17 -8 -17 -20 0 -11 5 -20 11 -20 5 0 7 -5 4 -10 -4 -6 -11 -7 -17
-4 -7 4 -8 2 -4 -5 4 -6 11 -9 15 -7 4 3 13 1 21 -5 13 -7 12 -9 -2 -9 -11 0
-18 -8 -18 -20 0 -11 4 -20 9 -20 5 0 11 -9 14 -20 3 -11 0 -20 -5 -20 -6 0
-5 -6 2 -15 10 -12 8 -16 -11 -23 l-23 -9 22 -5 c13 -4 22 -14 22 -25 0 -13
-2 -15 -9 -5 -6 11 -10 10 -15 -4 -4 -11 -2 -23 6 -29 9 -6 13 -31 12 -70 0
-33 4 -66 9 -72 5 -7 6 -13 3 -13 -4 0 -2 -9 4 -20 7 -14 7 -20 0 -20 -5 0
-10 5 -10 10 0 6 -7 10 -17 10 -14 0 -15 -2 -1 -17 17 -20 18 -99 1 -96 -5 1
-10 -5 -10 -13 0 -8 6 -13 13 -10 18 7 11 -43 -7 -55 -11 -7 -11 -9 -1 -9 7 0
11 -4 8 -8 -2 -4 0 -14 6 -22 8 -12 9 -12 4 2 -3 10 -1 18 4 18 6 0 10 -7 10
-16 0 -9 5 -13 13 -9 6 4 4 0 -5 -8 -10 -8 -15 -17 -11 -20 3 -4 3 -7 -2 -7
-4 0 -14 8 -22 18 -12 13 -12 12 0 -8 9 -14 21 -24 27 -22 6 1 9 -2 5 -7 -3
-6 7 -17 22 -25 l28 -14 -25 -7 c-19 -4 -26 -13 -27 -33 -1 -21 0 -23 6 -9 7
18 8 18 21 1 9 -11 10 -15 3 -10 -9 4 -13 1 -13 -9 0 -11 5 -15 14 -12 8 3 16
-2 19 -14 3 -10 10 -19 16 -19 6 0 8 7 5 15 -4 8 -1 15 6 15 9 0 9 4 -1 18
-13 15 -12 16 4 3 13 -10 15 -17 6 -27 -6 -8 -8 -14 -3 -14 4 0 3 -5 -4 -12
-9 -9 -15 -9 -24 0 -16 16 -25 15 -25 -3 0 -8 6 -15 12 -15 6 0 12 -6 12 -14
0 -12 -5 -12 -26 2 l-26 16 23 -23 c26 -25 28 -36 7 -27 -8 3 -15 1 -15 -4 0
-6 5 -10 10 -10 6 0 9 -6 8 -12 -2 -8 5 -12 17 -10 11 2 16 -1 10 -5 -14 -11
-14 -85 -1 -80 6 2 10 15 8 28 -3 34 13 58 30 41 9 -9 9 -12 0 -12 -7 0 -12
-13 -12 -30 0 -16 4 -30 10 -30 9 0 9 -4 -5 -45 -5 -16 -8 -17 -16 -5 -9 13
-10 13 -6 0 2 -8 8 -15 13 -15 5 0 20 -8 34 -18 13 -9 19 -17 12 -17 -6 0 -12
-5 -12 -11 0 -5 5 -7 10 -4 6 3 10 2 10 -3 0 -6 -7 -12 -15 -16 -8 -3 -15 -10
-15 -16 0 -6 5 -8 10 -5 5 3 10 0 10 -7 0 -9 2 -10 8 -1 10 17 37 -7 36 -32 0
-11 7 -29 15 -40 15 -18 15 -19 -2 -6 -15 12 -17 12 -11 -3 3 -9 11 -16 18
-16 7 0 6 -4 -2 -9 -16 -10 -12 -56 5 -56 17 0 20 -6 27 -48 4 -24 2 -36 -4
-32 -6 4 -7 -1 -3 -11 5 -14 8 -13 20 7 14 24 14 24 10 2 -6 -26 2 -29 22 -10
8 6 6 0 -4 -15 -17 -27 -17 -28 4 -28 11 0 20 -3 20 -7 -3 -20 2 -24 16 -13
13 11 13 8 -1 -25 -8 -20 -11 -34 -6 -31 6 3 13 -6 16 -19 4 -14 11 -23 16
-20 5 3 12 1 15 -5 4 -6 3 -10 -2 -9 -23 4 -43 -2 -38 -11 4 -6 11 -8 16 -5 5
4 9 -1 9 -9 0 -9 -5 -16 -11 -16 -5 0 -7 -5 -4 -10 4 -6 10 -8 15 -5 5 3 13
-3 19 -12 6 -10 11 -13 11 -8 0 6 10 16 23 24 21 13 21 13 6 -5 -9 -10 -16
-27 -16 -36 0 -14 4 -15 20 -7 10 6 20 9 21 7 1 -2 8 -12 16 -22 8 -11 10 -17
4 -13 -7 4 -15 0 -18 -9 -3 -8 -2 -13 3 -10 5 3 12 -1 15 -10 4 -12 2 -15 -9
-10 -8 3 -15 1 -15 -4 0 -6 5 -10 10 -10 6 0 20 -9 32 -20 12 -10 26 -17 31
-13 6 3 7 1 3 -5 -3 -6 -2 -13 4 -17 5 -3 10 1 10 9 0 8 4 18 10 21 6 3 7 -1
4 -9 -4 -11 0 -16 11 -16 9 0 13 -4 10 -10 -3 -5 -2 -10 4 -10 6 0 8 -7 5 -15
-7 -18 31 -21 42 -3 5 8 2 9 -9 5 -10 -3 -17 -2 -17 3 0 13 21 13 40 0 10 -6
11 -10 3 -10 -7 0 -13 -4 -13 -9 0 -6 9 -8 20 -6 11 2 21 -2 21 -8 8 -79 14
-91 34 -64 7 10 16 14 19 8 3 -5 0 -11 -6 -14 -7 -3 2 -11 21 -19 30 -14 31
-16 12 -21 -12 -3 -19 -2 -16 3 3 4 -2 10 -10 14 -8 3 -17 0 -21 -6 -4 -6 -3
-8 3 -5 6 4 14 0 17 -9 4 -12 14 -14 36 -9 26 6 30 4 30 -15 0 -12 8 -35 17
-51 16 -27 18 -28 28 -10 9 17 11 18 25 3 13 -14 12 -15 -2 -10 -12 5 -14 2
-10 -14 4 -16 2 -19 -9 -13 -8 5 -10 4 -6 0 12 -14 39 -15 34 -1 -3 7 1 13 9
13 8 0 14 -7 15 -16 0 -10 2 -12 6 -3 5 14 33 17 33 3 0 -4 10 -8 22 -7 11 0
23 -6 25 -14 1 -8 1 -10 -2 -4 -8 17 -45 5 -38 -12 3 -8 11 -14 19 -14 8 0 14
-4 14 -10 0 -5 10 -10 22 -10 21 0 21 0 -3 -27 -21 -25 -21 -26 -2 -9 19 16
25 17 38 6 11 -9 13 -16 5 -24 -13 -13 -13 -26 1 -26 5 0 7 5 4 11 -4 6 2 13
14 16 l21 5 0 3979 0 3979 -369 0 -368 -1 5 -27z m76 -97 c-4 -8 -10 -15 -14
-15 -5 0 -6 -9 -3 -20 3 -11 3 -20 0 -20 -13 0 -13 42 0 55 18 19 24 19 17 0z
m19 -112 c-7 -3 -13 -9 -13 -14 0 -6 5 -7 10 -4 6 3 10 1 10 -5 0 -7 -7 -10
-15 -7 -8 4 -17 2 -20 -3 -4 -6 -13 -10 -21 -10 -25 0 12 46 38 47 13 0 17 -1
11 -4z m97 -143 c5 8 10 10 10 4 0 -6 -6 -17 -13 -23 -11 -8 -16 -5 -26 17
-11 25 -10 26 4 7 14 -17 17 -18 25 -5z m24 -51 c4 -4 -4 -6 -18 -6 -21 0 -24
2 -15 13 7 8 15 11 18 7 3 -4 10 -11 15 -14z m109 -216 c-6 -16 -5 -17 13 -3
18 14 18 14 5 -3 -15 -19 -39 -8 -27 12 11 17 16 13 9 -6z m195 -409 c4 -4 1
-4 -5 0 -7 4 -13 3 -13 -2 0 -12 -42 -7 -67 7 -14 8 -8 9 30 7 26 -2 51 -7 55
-12z m-43 -45 c19 -9 19 -9 -2 -5 -12 2 -24 -1 -27 -8 -2 -6 -5 -3 -5 7 -1 19
5 20 34 6z m59 -23 c-5 -14 -64 -17 -64 -3 0 5 7 7 15 3 20 -7 46 4 38 17 -3
6 -1 7 5 3 6 -4 9 -12 6 -20z m-39 -64 c-3 -8 3 -16 14 -19 27 -7 33 -29 13
-45 -15 -12 -16 -11 -4 4 11 14 9 19 -17 34 -37 22 -46 40 -20 40 13 0 18 -5
14 -14z m-41 -108 c3 -8 2 -12 -3 -9 -5 3 -11 -3 -13 -12 -3 -13 -6 -10 -10
10 -6 29 15 39 26 11z m-38 -43 c-4 -5 0 -12 6 -15 7 -3 2 -3 -11 0 -17 5 -21
3 -16 -6 6 -9 4 -11 -5 -5 -10 6 -9 11 5 22 22 15 28 17 21 4z m-163 -188 c11
-10 17 -12 13 -5 -4 6 -2 12 3 12 17 0 13 -25 -7 -51 -15 -17 -21 -19 -27 -9
-6 9 -4 11 5 5 10 -6 12 -4 7 9 -5 11 -3 15 5 10 7 -4 8 -3 4 4 -4 7 -13 12
-20 12 -7 0 -13 7 -13 15 0 19 6 19 30 -2z m-72 -163 c6 0 7 6 3 13 -5 8 -3 8
9 -2 22 -17 12 -34 -12 -21 -10 5 -21 7 -24 4 -3 -3 -3 5 1 18 5 18 7 19 10 6
2 -10 8 -18 13 -18z m-45 -12 c5 -7 3 -8 -6 -3 -9 6 -12 4 -8 -7 4 -8 1 -15
-7 -15 -7 0 -10 8 -7 19 5 21 17 23 28 6z m-96 -94 c0 -14 -3 -14 -15 -4 -8 7
-15 14 -15 16 0 2 7 4 15 4 8 0 15 -7 15 -16z m-122 -116 c17 -17 15 -28 -5
-27 -12 0 -13 2 -5 6 10 4 9 8 -5 19 -10 7 -13 14 -7 14 5 0 15 -5 22 -12z
m57 -15 c1 -15 -3 -19 -17 -15 -15 4 -16 7 -6 20 11 13 11 14 -1 7 -10 -6 -12
-4 -7 4 11 17 29 8 31 -16z m697 -5940 c-6 -2 -10 -8 -8 -12 3 -4 -1 -8 -8 -8
-8 0 -12 6 -9 14 3 7 13 13 22 12 10 0 11 -2 3 -6z"/>
<path d="M9619 9768 c7 -10 11 -25 7 -33 -3 -10 -2 -13 5 -10 5 4 18 4 27 0
16 -6 15 -8 -2 -21 -19 -14 -19 -14 5 -15 17 -1 19 -3 7 -6 -21 -5 -23 -19 -5
-29 6 -4 9 -4 5 1 -4 4 3 16 15 26 12 10 16 18 10 19 -7 0 -13 5 -13 11 0 5 4
8 9 5 11 -7 8 20 -3 31 -4 4 -11 1 -15 -6 -6 -10 -15 -6 -36 16 -16 15 -23 20
-16 11z"/>
<path d="M9793 9540 c-1 -11 2 -22 8 -25 5 -3 6 1 2 11 -5 14 -3 15 18 3 14
-7 19 -14 11 -17 -6 -2 -12 -8 -12 -13 0 -14 18 -1 30 21 8 16 8 18 -5 14 -8
-4 -15 -1 -15 7 0 7 -3 9 -7 6 -3 -4 -11 -3 -17 3 -8 6 -12 3 -13 -10z"/>
<path d="M5583 9394 l-30 -37 -95 2 c-80 1 -117 -4 -239 -35 -167 -42 -344
-56 -452 -34 -128 25 -222 12 -350 -49 -81 -39 -131 -79 -181 -144 -53 -71
-73 -118 -96 -233 -23 -114 -46 -173 -102 -261 -39 -62 -83 -161 -75 -170 9
-8 245 36 299 56 73 27 168 27 320 2 145 -25 269 -65 321 -102 37 -27 47 -29
127 -29 82 0 91 2 162 40 170 89 476 135 614 91 33 -10 100 -24 149 -30 50 -7
102 -15 118 -17 25 -5 27 -3 27 26 0 51 -45 170 -106 281 -62 114 -77 152 -99
246 -19 80 -65 183 -107 235 -17 22 -55 56 -84 74 -36 23 -53 41 -57 61 -3 15
-12 36 -20 47 -13 17 -15 16 -44 -20z"/>
<path d="M9854 9000 c1 -16 6 -33 10 -37 5 -4 6 5 2 20 -5 22 -4 27 6 21 10
-6 9 -3 -1 9 -18 23 -19 22 -17 -13z"/>
<path d="M9793 8823 c-19 -7 -16 -21 5 -19 11 0 16 -5 14 -16 -1 -9 2 -19 7
-23 6 -3 10 8 9 30 -1 20 -4 31 -8 24 -5 -6 -9 -7 -11 -2 -2 6 -10 8 -16 6z"/>
<path d="M9597 8599 c-8 -28 -3 -34 11 -16 6 7 7 19 3 26 -6 9 -10 6 -14 -10z"/>
<path d="M9424 8448 c-11 -18 -12 -48 -2 -42 5 4 7 12 4 19 -2 7 1 18 7 24 6
6 8 11 5 11 -4 0 -10 -6 -14 -12z"/>
<path d="M9473 8423 c2 -12 6 -26 10 -29 11 -11 8 19 -3 36 -8 12 -9 10 -7 -7z"/>
<path d="M4258 8366 c-105 -28 -155 -97 -145 -201 14 -141 66 -239 150 -279
78 -38 206 -53 315 -37 145 21 193 62 262 227 41 98 40 146 -2 188 -85 85
-424 144 -580 102z"/>
<path d="M5463 8360 c-171 -37 -253 -81 -269 -145 -4 -15 -1 -51 5 -80 14 -62
74 -191 103 -222 55 -59 217 -85 366 -59 137 24 186 54 230 141 35 71 55 154
50 216 -5 67 -32 104 -103 142 -58 31 -253 34 -382 7z"/>
<path d="M9305 8259 c-19 -9 -19 -9 2 -5 13 2 24 -2 27 -11 4 -10 10 -11 25
-4 10 6 21 7 25 4 3 -3 6 -1 6 5 0 15 -27 16 -35 1 -5 -7 -11 -5 -18 4 -9 11
-18 12 -32 6z"/>
<path d="M3740 8200 c0 -32 14 -123 30 -202 29 -134 117 -474 127 -491 3 -4
19 6 36 23 36 35 42 36 84 11 55 -34 80 -93 118 -279 67 -332 119 -418 334
-559 47 -31 109 -77 137 -102 125 -114 226 -161 362 -169 149 -8 272 34 431
147 53 37 140 94 194 125 126 74 224 165 270 254 46 88 59 135 107 397 58 319
123 547 186 646 21 34 72 80 157 142 55 41 89 117 52 117 -28 0 -72 -28 -142
-90 -74 -66 -77 -66 -88 15 -8 67 -17 80 -42 67 -34 -19 -43 -38 -73 -151 -34
-130 -55 -174 -107 -224 -79 -77 -212 -112 -390 -103 -227 11 -273 44 -372
261 -34 77 -70 146 -79 153 -9 6 -31 12 -49 12 -40 0 -50 -14 -119 -173 -37
-84 -61 -124 -99 -163 -68 -71 -125 -88 -300 -88 -214 -1 -327 37 -391 131
-25 38 -71 178 -80 245 -4 27 -15 55 -26 64 -17 16 -20 16 -34 2 -9 -9 -18
-41 -21 -76 -3 -34 -10 -59 -14 -56 -5 3 -9 14 -9 25 0 56 -102 149 -163 149
-26 0 -27 -2 -27 -60z m213 -245 c18 -17 67 -218 67 -271 l0 -35 -74 60 c-83
68 -102 104 -93 178 8 71 61 107 100 68z m1371 -360 c3 -9 6 -34 6 -54 0 -48
-24 -71 -82 -78 -24 -3 -54 -15 -68 -28 -76 -69 -155 -72 -244 -10 -52 36 -60
38 -121 36 -61 -2 -68 0 -95 28 -33 32 -36 47 -19 85 20 43 60 46 52 4 -2 -13
2 -31 9 -41 11 -15 18 -16 41 -8 49 19 81 12 157 -34 41 -24 86 -45 101 -45
14 0 45 13 70 29 36 23 50 40 69 86 14 35 31 60 44 65 25 9 70 -11 80 -35z
m-309 -468 c28 0 84 3 125 8 82 8 160 -6 243 -45 61 -29 67 -48 19 -55 -20 -2
-75 -14 -122 -26 -237 -59 -355 -62 -549 -14 -80 20 -111 24 -133 16 -37 -13
-36 1 5 35 71 60 192 97 292 88 39 -4 93 -7 120 -7z m114 -292 c9 -9 -7 -16
-67 -27 -48 -9 -77 -8 -134 2 -73 13 -73 13 -43 27 22 10 57 12 135 8 57 -3
106 -8 109 -10z"/>
<path d="M0 8119 c0 -5 4 -9 8 -9 5 0 9 -7 9 -15 0 -8 -4 -15 -9 -15 -4 0 -8
-8 -7 -17 0 -11 3 -13 6 -5 2 6 9 10 14 6 5 -3 9 4 9 15 0 10 4 21 10 23 5 2
-2 8 -15 15 -14 6 -25 7 -25 2z"/>
<path d="M57 8053 c-4 -3 -1 -13 5 -22 10 -13 10 -14 -2 -3 -8 6 -24 12 -37
12 l-23 0 1 -2972 c0 -1635 3 -2968 5 -2961 3 7 13 9 22 6 15 -5 15 -4 0 8
-13 10 -15 18 -8 29 5 8 10 12 10 7 0 -4 11 0 25 9 23 15 25 15 25 0 0 -22 8
-20 31 6 11 13 19 19 18 13 -3 -21 1 -35 11 -35 6 0 10 7 10 15 0 14 10 18 27
13 5 -2 7 -7 5 -13 -2 -5 7 0 20 13 14 12 28 19 32 15 4 -4 4 0 1 8 -3 9 -13
16 -21 16 -8 0 -13 -6 -10 -13 3 -8 1 -16 -5 -19 -5 -4 -9 -3 -8 2 4 21 -2 34
-13 27 -6 -4 -8 -3 -5 3 7 11 46 11 64 0 8 -5 11 -1 10 12 -1 15 -7 18 -26 14
-14 -2 -22 -1 -18 3 4 4 23 8 43 9 38 3 54 17 54 47 0 10 3 17 8 16 15 -3 61
22 74 41 8 12 18 18 21 15 3 -4 13 1 22 10 9 9 21 13 27 10 6 -4 8 1 4 14 -8
26 13 41 26 18 5 -9 17 -16 26 -16 16 1 16 1 -1 11 -9 6 -15 14 -12 20 9 14
27 11 19 -3 -5 -10 -4 -10 6 -1 15 13 4 36 -13 26 -7 -3 -3 3 7 15 23 27 30
28 21 5 -5 -14 -3 -15 5 -7 9 9 7 19 -6 40 -18 28 -18 28 -1 15 17 -13 18 -12
11 14 -5 20 -4 26 5 21 6 -4 9 -12 6 -17 -4 -5 -1 -9 4 -9 6 0 11 4 11 10 0 5
7 7 16 3 14 -5 15 -3 5 15 -14 27 -14 32 3 26 8 -3 17 0 22 7 4 8 3 10 -4 5
-8 -5 -12 0 -12 13 0 14 6 21 19 21 12 0 18 -7 17 -17 0 -10 6 -18 14 -19 8 0
9 1 3 3 -7 3 -13 9 -13 14 0 6 4 7 10 4 6 -3 10 -2 10 4 0 5 -4 12 -10 16 -5
3 -7 12 -4 20 4 8 9 13 13 11 4 -3 13 -1 21 5 12 7 10 9 -8 9 -13 0 -20 4 -17
10 4 6 11 7 17 4 7 -5 9 0 6 14 -5 19 -4 20 15 10 21 -11 21 -10 7 7 -14 17
-13 18 2 12 13 -4 16 -1 13 14 -2 10 1 19 7 19 7 0 4 6 -5 12 -12 9 -14 17 -7
28 8 12 10 12 10 -5 0 -16 2 -17 9 -5 6 8 8 17 5 21 -2 4 2 10 8 12 10 4 10 6
1 6 -7 1 -13 5 -13 11 0 5 7 7 15 3 9 -3 15 -2 14 3 -1 5 1 26 5 47 6 25 13
37 24 35 8 -2 17 3 19 10 4 9 -2 11 -22 6 l-27 -7 17 27 c10 14 14 26 10 26
-4 0 -3 6 2 13 17 22 24 49 10 41 -6 -4 -1 6 13 22 14 16 18 23 10 17 -22 -20
-32 -15 -20 8 6 11 10 30 8 42 -2 12 3 27 10 32 10 8 10 17 -4 43 -19 38 -11
55 12 26 14 -16 14 -15 0 9 -12 19 -13 26 -4 25 7 -2 12 4 10 13 -1 10 6 19
18 22 11 3 20 11 20 17 0 10 -3 10 -15 0 -10 -8 -15 -9 -15 -2 0 7 -8 9 -18 5
-9 -3 -15 -4 -12 -2 40 33 52 42 46 32 -4 -7 -2 -13 3 -13 14 0 14 13 0 27
-13 13 6 57 21 48 6 -3 7 1 4 9 -3 9 -11 13 -18 9 -6 -4 -5 1 3 10 12 16 12
17 -5 11 -18 -5 -18 -5 -1 6 13 8 15 16 8 28 -7 13 -3 25 15 49 20 27 22 33 9
33 -9 0 -13 -4 -10 -10 3 -6 -1 -7 -10 -3 -9 3 -12 8 -7 12 10 6 12 11 12 32
0 5 5 7 12 3 6 -4 8 -3 4 4 -3 6 -2 13 4 17 15 9 12 25 -5 25 -17 0 -21 35 -5
45 5 3 7 0 4 -8 -3 -8 -1 -18 5 -22 7 -3 8 0 5 9 -3 9 -1 16 4 16 11 0 10 20
-4 54 -5 13 -4 17 3 13 6 -4 14 0 17 9 9 24 7 31 -4 14 -8 -13 -10 -12 -10 3
0 9 7 17 15 17 13 0 14 4 5 20 -6 11 -7 20 -2 20 5 0 9 10 8 23 -1 14 -7 21
-16 19 -9 -2 -6 6 9 22 14 14 20 26 14 26 -6 0 -14 7 -17 16 -4 10 -2 13 6 8
7 -5 9 -2 5 8 -7 20 3 31 17 19 8 -6 11 1 11 25 1 33 -8 44 -20 24 -3 -5 -1
-10 5 -10 6 0 8 -4 5 -10 -4 -6 -11 -5 -20 3 -10 9 -10 15 -1 26 8 12 8 13 -1
7 -7 -4 -13 -3 -13 2 0 6 6 12 14 15 17 7 18 47 1 44 -13 -2 -7 44 7 58 8 7 9
6 4 -2 -5 -9 -2 -11 10 -6 16 6 16 7 -1 19 -10 7 -21 11 -26 9 -4 -3 -6 7 -4
22 2 16 0 33 -4 38 -3 6 2 3 11 -7 9 -10 19 -14 22 -9 4 5 2 12 -3 16 -6 3 -7
13 -4 22 5 12 3 14 -8 8 -12 -8 -12 -6 0 8 7 9 10 17 6 17 -4 0 -2 7 5 16 11
12 11 15 -1 12 -8 -2 -13 3 -11 11 3 12 0 12 -13 1 -13 -11 -15 -10 -9 4 3 9
11 16 17 16 6 0 3 6 -7 13 -17 12 -17 14 -2 20 9 4 16 2 16 -4 0 -6 5 -7 11
-4 6 5 4 12 -8 21 -10 7 -14 14 -9 14 5 0 3 7 -4 16 -8 8 -9 14 -4 13 21 -4
23 2 8 26 -10 15 -12 25 -5 25 6 0 11 -4 11 -10 0 -5 3 -10 8 -10 4 0 7 13 7
29 0 16 -3 27 -6 25 -4 -2 -9 5 -12 16 -3 11 -2 18 1 16 4 -2 8 10 8 26 1 24
-1 27 -8 14 -13 -24 -31 -20 -18 4 7 14 7 20 0 20 -5 0 -10 5 -10 11 0 5 6 7
12 3 7 -5 2 5 -10 21 -13 16 -18 31 -13 34 15 10 32 93 18 88 -7 -2 -11 -11
-11 -20 1 -9 -2 -15 -6 -12 -5 3 -11 -1 -13 -7 -4 -9 -6 -9 -6 -1 -1 6 11 26
26 44 16 18 23 30 17 26 -7 -4 -15 0 -18 9 -4 9 -2 12 5 8 7 -4 9 1 7 12 -2
11 -10 18 -18 16 -11 -3 -11 0 -1 11 9 12 9 16 -1 20 -8 3 -6 6 6 6 12 1 16
-4 12 -14 -3 -8 -1 -15 5 -15 21 0 3 35 -19 38 -22 3 -22 5 -6 17 17 12 17 14
1 39 -15 22 -15 26 -2 26 8 0 15 5 15 11 0 5 -4 8 -9 5 -4 -3 -17 2 -27 10
-10 9 -14 13 -7 10 8 -4 10 4 8 26 -2 18 -4 43 -4 56 -1 13 -5 21 -10 18 -5
-3 -11 3 -14 15 -4 14 0 22 13 27 26 10 28 16 7 37 -12 12 -17 28 -15 47 3 20
0 28 -11 28 -11 0 -12 3 -4 11 12 12 6 49 -9 49 -5 0 -4 -8 1 -19 8 -15 7 -20
-5 -25 -12 -4 -15 -2 -11 9 4 8 2 17 -3 20 -15 9 -12 42 5 49 17 6 20 26 4 26
-5 0 -7 -4 -4 -10 15 -24 -6 -7 -26 21 -26 37 -36 131 -13 122 8 -3 13 -8 12
-11 -2 -19 3 -32 13 -32 8 0 7 6 -2 17 -8 9 -12 17 -9 17 2 1 -3 11 -12 24 -9
13 -17 19 -19 14 -2 -6 -10 -3 -18 5 -11 12 -11 14 0 12 28 -3 34 1 34 25 0
13 -3 22 -6 20 -4 -2 -10 3 -13 12 -9 22 -8 26 6 18 7 -4 8 -3 4 4 -4 6 -14 8
-23 5 -12 -5 -14 -3 -8 7 6 10 4 12 -7 7 -13 -5 -15 -1 -9 21 4 15 7 32 6 37
-2 20 -26 55 -36 52 -6 -1 -18 8 -26 21 -14 20 -14 22 1 16 9 -3 13 -10 10
-15 -3 -5 -1 -9 4 -9 5 0 10 11 10 24 0 17 -5 23 -14 19 -9 -3 -14 1 -14 12 0
9 5 13 11 9 8 -4 8 -1 1 12 -6 11 -11 24 -13 29 -2 6 -10 8 -18 7 -13 -3 -13
-1 -1 13 10 12 10 19 2 27 -8 8 -7 15 6 25 15 13 15 13 -7 7 -16 -4 -21 -3
-17 5 4 6 2 11 -4 11 -7 0 -9 -7 -6 -16 3 -9 6 -22 6 -30 0 -9 5 -12 13 -8 6
4 8 3 4 -1 -11 -12 -38 -15 -31 -4 8 13 -15 69 -28 69 -5 0 -7 4 -4 9 7 11
-22 23 -37 15 -7 -3 -4 1 6 9 10 8 19 24 20 35 1 13 7 18 17 15 8 -2 5 2 -8 9
-12 8 -19 17 -16 21 4 4 2 7 -5 7 -8 0 -11 -6 -7 -16 11 -29 -4 -33 -31 -8
-25 24 -26 47 -1 27 9 -6 24 -4 48 8 19 10 30 18 24 19 -6 0 -17 11 -24 25
-10 18 -16 22 -22 13 -5 -9 -8 -6 -8 10 0 12 5 22 10 22 6 0 5 6 -2 14 -7 7
-20 11 -28 8 -12 -4 -11 -1 2 14 14 16 15 23 6 32 -7 7 -9 12 -5 12 4 0 -2 9
-14 21 -20 20 -22 56 -3 52 5 -1 11 8 11 19 2 20 1 20 -12 2 -7 -11 -17 -16
-21 -12 -4 4 -2 13 4 21 13 15 -1 43 -17 33 -6 -4 -11 0 -11 9 0 13 4 14 21 4
16 -8 24 -8 33 2 8 9 8 10 -2 5 -9 -6 -11 -1 -8 18 3 14 0 29 -6 32 -7 5 -8 2
-3 -5 5 -9 1 -9 -14 1 -19 12 -19 13 -3 20 28 11 54 9 46 -4 -5 -7 -3 -8 6 -3
10 6 10 11 -3 20 -9 7 -14 15 -10 18 3 4 2 7 -4 7 -12 0 -53 34 -53 44 0 4 4
5 9 1 5 -3 11 0 14 7 2 7 3 5 2 -4 -2 -10 1 -18 6 -18 9 0 11 5 13 56 2 31 -6
36 -31 21 -6 -4 -15 -2 -19 4 -4 7 -3 9 4 5 5 -3 12 -2 14 4 1 5 13 11 26 13
12 2 28 9 35 16 6 7 8 12 2 11 -30 -6 -38 2 -16 14 24 13 24 14 4 20 -12 4
-24 14 -27 23 -5 13 -4 14 9 3 19 -16 47 -6 39 15 -3 8 -10 12 -15 9 -5 -3 -9
4 -9 15 0 13 -5 19 -14 15 -8 -3 -17 1 -22 8 -4 7 -4 10 1 6 4 -4 14 -3 22 3
10 9 13 8 13 -2 0 -10 3 -10 12 -1 16 16 41 16 32 0 -5 -9 -2 -9 9 1 9 7 17
16 17 19 0 3 -3 3 -6 -1 -8 -7 -66 13 -82 30 -11 11 -10 12 10 9 13 -3 23 -5
23 -6 0 -1 7 -3 16 -5 9 -1 16 3 16 11 0 9 -4 11 -12 4 -7 -6 -16 -5 -23 2
-18 18 -14 26 11 23 14 -2 24 2 24 10 0 7 -8 10 -19 7 -10 -2 -18 1 -18 7 0 7
6 9 13 5 9 -5 9 -4 0 6 -13 15 -36 4 -27 -13 4 -7 3 -8 -1 -4 -11 9 -16 39 -7
33 4 -2 16 0 27 5 17 6 17 8 3 8 -11 1 -15 6 -12 16 4 8 1 15 -6 15 -6 0 -8 5
-5 10 7 12 26 14 24 3 -3 -20 2 -31 18 -37 15 -6 15 -5 -1 13 -11 12 -14 21
-6 26 5 3 8 11 4 16 -3 5 -10 7 -15 4 -5 -4 -9 -3 -10 2 0 4 -2 16 -4 26 -2 9
1 15 6 11 5 -3 6 -10 3 -16 -4 -6 -1 -8 7 -6 8 3 13 10 12 16 -1 5 4 13 13 16
8 3 12 2 9 -3 -3 -5 -1 -12 5 -16 5 -3 10 3 10 14 0 24 -4 25 -31 10 -18 -9
-19 -7 -14 18 5 21 4 24 -4 13 -8 -12 -10 -11 -8 8 0 12 9 25 19 28 10 3 18
10 18 15 0 6 -5 7 -12 3 -7 -5 -8 -3 -4 5 5 7 15 10 25 6 13 -5 14 -4 3 7 -10
10 -16 10 -32 0 -12 -7 -20 -8 -20 -2 0 5 4 10 10 10 12 0 2 73 -12 81 -15 10
17 18 51 14 29 -4 30 -3 20 17 -11 21 -12 21 -25 3 -14 -18 -14 -18 -14 0 0
16 -2 16 -18 4 -10 -8 -4 -1 12 15 l31 28 -31 -15 -30 -16 4 30 c2 16 8 26 13
23 5 -3 9 1 9 8 0 10 3 9 11 -2 9 -13 10 -13 6 0 -2 8 -11 14 -20 14 -9 -1
-18 5 -21 12 -6 17 -5 17 31 3 23 -8 26 -8 15 3 -7 7 -16 13 -20 14 -4 0 -18
6 -32 13 -23 11 -23 11 -2 7 24 -5 27 1 12 24 -7 11 -10 11 -10 2 0 -7 -5 -10
-11 -7 -16 10 21 33 45 28 20 -3 20 -3 1 5 -10 5 -30 8 -42 6 -13 -1 -24 3
-24 9 -6 54 -4 64 12 60 9 -3 20 0 23 6 5 7 1 8 -10 4 -14 -5 -16 -3 -11 11 4
10 3 15 -3 11 -6 -4 -8 6 -6 24 2 17 0 31 -5 31 -5 0 -6 8 -3 18 5 14 4 15 -5
2 -6 -8 -15 -15 -21 -15 -5 0 -9 -4 -7 -10 1 -5 8 -9 15 -7 7 2 12 -8 12 -28
0 -18 -4 -29 -10 -25 -5 3 -10 1 -10 -5 0 -6 -5 -8 -11 -4 -8 4 -7 9 2 14 10
7 9 13 -3 32 -11 17 -13 29 -6 41 6 11 5 17 -2 17 -7 0 -8 6 0 19 15 30 12 48
-5 25 -14 -18 -16 -18 -29 -1 -14 18 -14 18 -19 0 -3 -10 -5 -4 -4 12 2 26 -1
30 -21 27 -15 -2 -23 1 -21 10 1 7 1 20 0 28 -1 13 -2 13 -12 0 -9 -12 -10
-11 -6 6 4 19 2 20 -19 10 -13 -6 -24 -14 -24 -18 0 -5 -4 -8 -9 -8 -4 0 -6
12 -3 26 3 18 1 25 -6 20 -6 -3 -14 -1 -18 5 -4 7 -3 9 4 5 6 -3 13 -2 17 4 3
5 -1 10 -9 10 -8 0 -20 9 -26 20 -6 11 -16 17 -22 14 -8 -5 -9 -1 -4 11 5 15
4 16 -9 5 -9 -7 -15 -9 -14 -4 4 23 -2 26 -17 8 -15 -19 -15 -19 -11 2 4 18 1
20 -16 16 -17 -4 -19 -2 -14 18 4 16 3 20 -5 12 -6 -6 -17 -8 -25 -5 -12 5
-12 7 -1 14 10 7 10 9 -3 9 -9 0 -19 -3 -22 -7z m53 -62 c0 -15 -33 -22 -44
-10 -7 8 -7 10 -1 6 6 -3 17 -2 25 4 19 11 20 11 20 0z m61 -89 c-6 -2 -8 -9
-5 -14 4 -7 2 -8 -4 -4 -9 5 -8 12 1 27 7 12 13 15 16 7 2 -7 -1 -14 -8 -16z
m138 -51 c9 -6 10 -11 2 -15 -6 -4 -11 -3 -11 2 0 6 -10 8 -22 5 -19 -4 -20
-3 -8 6 18 13 21 13 39 2z m84 -97 c-10 -7 -22 -13 -28 -14 -5 0 -3 5 5 10 8
5 11 10 5 10 -5 0 -3 4 5 9 22 14 34 1 13 -15z m67 -1387 c-10 -9 -11 -7 -5
12 5 15 3 21 -3 17 -6 -4 -8 2 -4 16 5 22 6 21 15 -6 7 -20 6 -31 -3 -39z m54
-69 c-5 -8 -40 -5 -50 4 -3 4 0 16 6 29 l12 22 18 -24 c10 -13 16 -27 14 -31z
m48 -111 c7 -13 5 -17 -7 -17 -8 0 -18 -1 -22 -2 -3 -2 -7 7 -9 19 -4 26 23
26 38 0z m147 -446 c-6 -2 -16 2 -22 9 -9 10 -9 11 1 6 7 -4 12 -2 12 6 0 9 3
9 10 -2 6 -10 6 -16 -1 -19z m124 -464 c3 -7 -3 -13 -12 -14 -10 -1 -18 5 -18
13 0 18 23 19 30 1z m-556 -2987 c-1 -11 -7 -20 -14 -20 -11 0 -11 4 -1 20 7
11 14 20 15 20 1 0 1 -9 0 -20z"/>
<path d="M264 7946 c2 -33 10 -40 26 -21 8 10 9 15 1 15 -6 0 -10 5 -8 11 1 6
-3 13 -9 16 -6 2 -10 -7 -10 -21z"/>
<path d="M348 7899 c-3 -8 1 -20 8 -27 15 -14 17 -7 5 22 -6 15 -9 16 -13 5z"/>
<path d="M3368 7413 c-11 -3 -15 -10 -11 -20 5 -13 2 -15 -11 -10 -12 5 -15 3
-11 -6 4 -6 -1 -3 -9 7 -13 17 -18 18 -29 6 -7 -8 -8 -10 -1 -7 7 4 14 0 18
-8 3 -8 2 -14 -3 -12 -16 4 -71 -47 -72 -67 0 -12 -3 -15 -6 -8 -10 25 -19 11
-15 -25 3 -31 2 -36 -9 -26 -10 10 -15 9 -25 -5 -11 -14 -9 -20 14 -39 15 -12
21 -22 15 -23 -7 0 -13 5 -13 11 0 5 -4 8 -9 4 -5 -3 -12 -1 -16 5 -3 5 -12
10 -18 10 -8 0 -8 -3 1 -9 7 -4 12 -14 10 -21 -2 -7 3 -15 11 -18 9 -3 11 0 6
8 -6 9 -4 11 4 5 17 -10 1 -26 -28 -28 -11 -1 -21 -5 -21 -10 0 -5 8 -6 18 -3
14 5 13 3 -3 -10 -11 -8 -19 -22 -17 -31 2 -10 -1 -12 -10 -7 -8 5 -6 -2 5
-19 21 -32 22 -41 2 -33 -14 5 -13 2 0 -24 18 -36 25 -38 19 -7 -5 22 -5 22 5
0 14 -31 3 -62 -20 -58 -11 2 -17 0 -14 -6 4 -5 10 -7 15 -4 4 3 16 -8 25 -23
l18 -27 -21 18 c-19 18 -20 18 -18 1 2 -10 8 -20 14 -22 7 -2 12 -11 12 -19 0
-10 6 -13 16 -9 8 3 12 2 9 -4 -3 -6 -14 -10 -23 -11 -14 0 -13 -2 3 -8 14 -6
24 -3 34 8 7 9 5 3 -4 -13 -9 -16 -12 -26 -7 -22 6 3 14 1 18 -5 4 -7 3 -9 -4
-5 -6 3 -13 2 -16 -3 -3 -5 1 -12 10 -15 13 -5 14 -9 4 -21 -12 -15 -4 -21 23
-16 5 1 6 -3 2 -9 -3 -5 -1 -10 4 -10 6 0 11 -5 11 -11 0 -5 -6 -7 -12 -3 -8
4 -10 3 -5 -2 5 -5 13 -10 18 -10 5 -1 14 -2 19 -3 6 0 10 -5 10 -11 0 -5 -8
-7 -17 -5 -10 3 -4 -1 14 -10 23 -11 31 -20 28 -35 -2 -11 1 -20 6 -20 6 0 7
-5 3 -12 -4 -6 -3 -8 4 -4 6 3 13 2 17 -4 4 -6 11 -7 17 -4 7 4 8 2 4 -4 -4
-7 -3 -12 3 -12 5 0 18 -13 27 -29 10 -17 21 -28 26 -25 4 3 8 0 8 -7 0 -7 2
-10 6 -7 8 9 174 -145 174 -162 0 -5 -7 -16 -16 -24 -21 -22 -6 -20 76 10 73
26 94 25 82 -4 -20 -47 -50 -82 -89 -106 -39 -23 -43 -29 -37 -53 4 -16 10
-35 14 -43 6 -10 -6 -23 -43 -45 -64 -38 -70 -60 -26 -95 l32 -27 -41 -38
c-54 -48 -54 -72 -2 -92 l41 -16 -28 -31 c-64 -69 -67 -75 -53 -91 7 -8 30
-18 51 -21 22 -4 39 -10 39 -13 0 -4 -16 -26 -35 -48 -19 -23 -35 -46 -35 -52
0 -17 37 -32 85 -35 24 -1 47 -5 50 -8 3 -3 -11 -29 -30 -57 -20 -29 -35 -60
-33 -69 4 -22 42 -27 91 -12 21 6 41 9 44 6 3 -3 -2 -25 -11 -49 -38 -99 -11
-131 86 -102 32 10 60 16 62 14 2 -2 0 -28 -6 -58 -11 -65 0 -101 33 -101 12
0 46 14 75 31 l54 30 0 -58 c0 -33 5 -64 12 -71 21 -21 63 -13 114 23 l49 35
10 -63 c6 -34 14 -68 18 -74 15 -24 55 -13 103 27 27 22 52 40 55 40 4 0 9
-15 12 -32 17 -103 50 -114 127 -42 l49 46 12 -28 c30 -77 40 -94 52 -94 8 0
40 27 72 60 31 34 58 60 59 58 1 -2 11 -22 21 -46 22 -52 51 -75 76 -62 9 5
35 39 58 74 22 35 44 67 49 70 6 3 15 -7 22 -23 16 -39 54 -74 77 -69 11 2 33
32 57 81 l39 77 48 -45 c26 -25 53 -45 58 -45 18 0 39 30 56 80 9 27 21 52 25
55 5 3 27 -6 49 -20 60 -38 85 -34 110 18 11 23 23 61 27 85 4 23 8 42 10 42
2 0 19 -11 39 -24 45 -31 91 -42 110 -26 17 14 35 72 35 114 0 27 2 28 35 22
19 -3 50 -9 68 -12 48 -8 66 11 78 86 5 35 11 66 13 67 2 2 25 -2 53 -8 40 -9
55 -9 79 2 27 13 29 18 32 81 l3 67 63 0 c101 -1 129 27 107 106 -13 48 -8 55
38 55 49 0 99 18 110 39 8 15 2 44 -24 104 -6 14 -1 17 31 18 67 1 85 5 102
23 16 15 15 19 -6 59 -28 53 -28 57 6 57 15 0 44 5 66 11 37 10 38 12 33 46
-4 20 -13 43 -22 53 -20 22 -19 39 3 38 36 -3 90 13 106 31 21 23 13 43 -30
76 -33 26 -45 55 -22 55 6 0 19 7 29 16 16 14 21 13 59 -6 23 -12 39 -17 36
-12 -3 5 -19 15 -34 21 l-29 12 33 36 c19 20 34 40 34 44 0 5 6 9 13 9 12 0
47 34 47 46 0 9 61 64 71 64 5 0 14 11 19 25 5 14 16 25 25 25 8 0 15 6 15 14
0 7 9 16 21 19 12 3 18 10 14 16 -3 6 -11 8 -17 5 -7 -5 -8 -2 -4 5 5 7 14 10
22 7 8 -3 14 1 14 11 0 9 3 13 7 10 7 -8 33 11 33 25 0 5 -6 6 -12 2 -7 -4 -6
1 3 12 9 10 14 26 12 34 -3 9 2 8 12 -5 17 -20 17 -20 11 2 -4 12 -9 32 -11
45 -4 22 -4 22 10 4 15 -19 15 -19 15 2 0 12 -5 22 -12 22 -6 0 -4 8 6 19 17
18 17 20 -1 31 -16 10 -16 11 0 6 11 -4 17 0 17 11 0 13 2 14 18 2 15 -12 16
-12 5 2 -9 10 -9 19 -2 26 6 6 5 10 -5 10 -8 0 -13 -4 -11 -8 3 -4 -2 -10 -11
-13 -25 -10 -26 -7 -4 16 l20 22 -22 13 -23 14 25 -6 25 -6 -25 15 c-14 9 -20
15 -13 16 6 0 11 9 10 20 -1 12 -7 18 -13 16 -8 -3 -11 3 -8 20 3 16 1 23 -6
19 -5 -3 -10 1 -10 9 0 9 4 16 9 16 5 0 7 9 4 20 -3 11 -14 20 -24 20 -11 0
-18 3 -18 8 1 4 0 18 -1 32 -2 18 -4 20 -7 8 -2 -10 -8 -18 -13 -18 -5 0 -7 7
-3 16 5 13 1 15 -18 10 -20 -6 -21 -5 -6 4 9 6 17 16 17 23 0 7 -4 6 -10 -3
-6 -10 -10 -11 -10 -2 0 6 -7 12 -15 12 -8 0 -15 5 -15 11 0 8 -4 8 -12 2 -7
-6 -21 -10 -30 -10 -14 0 -15 3 -7 14 9 10 7 13 -7 15 -34 2 -39 3 -53 12 -11
7 -13 5 -8 -10 7 -18 7 -18 -8 0 -11 14 -15 16 -15 5 -1 -10 -3 -9 -11 4 -11
19 -29 23 -29 6 0 -5 5 -7 12 -3 7 4 8 3 4 -4 -10 -17 -26 -15 -26 3 0 18 -16
20 -26 3 -4 -6 -3 -8 2 -5 6 3 11 -3 11 -14 2 -18 0 -18 -17 3 -18 21 -19 22
-20 4 0 -15 -3 -17 -11 -9 -8 8 -16 7 -30 -5 -21 -18 -23 -19 -70 -21 -16 0
-28 -5 -25 -10 3 -5 -1 -12 -10 -15 -8 -3 -12 -2 -9 4 3 6 2 10 -3 10 -6 0
-13 -11 -16 -25 -4 -16 -11 -22 -21 -19 -8 3 -22 -1 -31 -10 -8 -9 -20 -13
-26 -10 -6 4 -8 2 -5 -3 8 -12 -34 -43 -57 -43 -8 0 -20 -8 -25 -17 -6 -10
-11 -15 -11 -11 0 12 -90 -77 -90 -89 0 -5 -9 -18 -20 -28 -11 -10 -20 -26
-20 -37 0 -10 -4 -18 -9 -18 -8 0 -36 -82 -36 -105 0 -5 -6 -16 -13 -23 -7 -8
-10 -18 -7 -23 4 -5 1 -9 -4 -9 -6 0 -11 -9 -11 -19 0 -58 -70 -14 -99 62 -11
28 -20 46 -20 39 -1 -22 29 -86 51 -110 12 -12 45 -37 72 -54 28 -18 74 -50
101 -72 28 -23 52 -42 54 -43 2 -2 2 -5 -1 -8 -8 -8 -86 22 -118 45 -15 11
-42 23 -58 26 -29 6 -30 4 -57 -68 -87 -228 -250 -445 -481 -639 -248 -207
-534 -322 -799 -322 -142 0 -213 16 -335 75 -146 71 -281 230 -320 376 -6 24
-11 85 -11 135 -1 131 39 250 127 386 l66 101 -66 72 c-36 39 -81 101 -100
137 -30 58 -85 236 -86 281 -1 8 -7 29 -15 45 l-13 30 5 -37 c5 -32 3 -38 -13
-38 -15 0 -16 -2 -5 -9 21 -14 -46 -31 -99 -25 -25 2 -53 5 -63 5 -11 0 -15 5
-10 12 4 7 -2 5 -12 -3 -10 -8 -16 -10 -12 -3 5 8 -6 16 -33 23 -22 6 -40 15
-40 21 0 6 -8 9 -17 8 -30 -2 -38 0 -59 19 -20 19 -54 36 -66 34 -5 -1 -8 3
-8 10 0 6 -3 8 -7 5 -3 -4 -11 1 -18 10 -7 9 -25 16 -44 15 -17 0 -29 3 -26 8
3 5 -4 14 -16 20 -17 10 -20 9 -14 -2 5 -7 -4 -2 -18 11 -19 17 -27 20 -27 10
-1 -11 -4 -10 -14 4 -15 20 -61 24 -50 5 5 -10 4 -10 -6 -1 -11 10 -11 15 0
28 7 8 11 14 9 14 -2 -1 -12 -3 -21 -6z m-92 -110 c-2 -9 -9 -18 -17 -20 -8
-2 -9 -1 -2 3 7 3 9 12 6 20 -3 8 -1 14 5 14 6 0 9 -8 8 -17z m-121 -243 c-3
-5 -1 -10 4 -10 6 0 11 5 11 12 0 6 2 9 5 6 3 -3 3 -13 -1 -22 -5 -13 -9 -14
-20 -5 -17 14 -18 29 -3 29 5 0 7 -4 4 -10z m3039 -516 c31 -32 32 -40 5 -54
-16 -9 -26 -8 -45 5 -24 16 -29 31 -18 59 9 23 28 20 58 -10z m253 -5 c56 -27
61 -57 6 -34 -44 18 -86 55 -63 55 7 0 33 -9 57 -21z m-91 -30 c9 -10 14 -22
11 -25 -18 -18 -106 33 -93 54 9 14 58 -3 82 -29z m-2217 -63 c-28 -26 -49
-35 -89 -41 -31 -4 -60 -15 -72 -27 -27 -27 -69 -48 -81 -41 -13 8 44 63 66
63 10 0 31 9 46 19 29 21 125 59 151 60 9 0 0 -13 -21 -33z m2459 14 c35 -21
38 -43 8 -48 -21 -4 -62 21 -76 48 -9 17 -8 20 12 20 13 0 38 -9 56 -20z
m-466 -27 c29 -26 23 -53 -11 -53 -38 0 -56 22 -41 49 13 25 27 26 52 4z m166
-9 c12 -8 27 -24 32 -35 10 -17 7 -19 -28 -19 -40 0 -82 28 -82 55 0 20 49 20
78 -1z m174 -11 c25 -22 23 -33 -7 -33 -29 0 -85 26 -85 39 0 27 59 24 92 -6z
m-2592 -18 c0 -10 -65 -37 -97 -40 -46 -4 -31 9 32 28 56 17 65 19 65 12z
m230 -21 c0 -18 -24 -44 -40 -44 -24 0 -25 8 -3 32 15 17 43 25 43 12z m1950
-60 c20 -52 2 -73 -45 -52 -29 13 -31 20 -9 53 21 32 42 32 54 -1z m529 -6
c17 -18 31 -37 31 -42 0 -17 -101 1 -122 22 -29 29 -17 52 26 52 27 0 42 -8
65 -32z m-2583 5 c-2 -10 -13 -19 -24 -21 -26 -4 -29 13 -4 27 25 15 31 13 28
-6z m2219 -9 c30 -33 31 -41 5 -49 -30 -9 -94 25 -98 53 -3 19 1 22 33 22 26
0 43 -7 60 -26z m-2370 -4 c0 -8 -4 -15 -10 -16 -5 0 -23 -6 -39 -13 -40 -16
-46 -4 -12 25 30 27 61 28 61 4z m2558 -8 c15 -16 24 -31 20 -35 -14 -15 -81
-6 -107 14 -40 31 -34 49 17 49 34 0 49 -6 70 -28z m-2471 -22 c16 0 -21 -38
-43 -45 -10 -4 -24 -3 -30 0 -15 10 31 57 49 50 7 -3 18 -5 24 -5z m128 -4 c0
-31 -62 -68 -81 -49 -10 10 6 27 45 49 29 16 36 16 36 0z m1915 -72 c34 -37
33 -64 -2 -64 -16 0 -39 9 -53 19 -21 17 -23 22 -12 45 15 33 36 33 67 0z
m-2175 9 c-1 -30 -104 -83 -123 -64 -8 8 -6 15 8 25 11 8 29 21 40 30 20 16
75 22 75 9z m2317 -3 c29 -11 59 -53 48 -69 -2 -5 -24 -5 -47 -1 -67 13 -95
72 -37 79 3 1 20 -4 36 -9z m204 -29 c39 -40 37 -51 -12 -51 -32 0 -47 6 -70
30 -36 35 -31 50 17 50 26 0 44 -8 65 -29z m190 -1 c37 -36 31 -50 -22 -50
-32 0 -47 7 -70 30 -37 36 -31 50 22 50 32 0 47 -7 70 -30z m-2431 -8 c0 -27
-66 -67 -89 -53 -17 11 -3 39 28 56 36 20 61 19 61 -3z m-160 -7 c0 -16 -38
-38 -82 -49 -37 -9 -38 15 -2 43 31 25 84 28 84 6z m1962 -69 c22 -51 -16 -73
-68 -40 l-25 17 22 23 c29 31 56 30 71 0z m-2121 -17 c17 -8 18 -13 8 -25 -36
-43 -149 -72 -149 -39 0 16 84 75 108 75 7 0 22 -5 33 -11z m325 -33 c-18 -28
-56 -42 -79 -29 -21 11 -1 38 44 57 42 18 58 6 35 -28z m-158 25 c24 -15 -18
-51 -65 -56 -49 -4 -53 3 -20 32 34 31 62 39 85 24z m2121 -17 c32 -40 15 -60
-44 -54 -28 3 -42 16 -47 45 -6 31 -2 35 38 35 23 0 38 -7 53 -26z m179 -9
c33 -39 29 -55 -17 -55 -60 0 -114 54 -83 84 14 15 77 -3 100 -29z m187 -7
c31 -36 22 -48 -38 -48 -27 0 -45 7 -62 25 -40 39 -33 55 24 55 43 0 53 -4 76
-32z m-657 -20 c7 -7 12 -29 12 -50 0 -31 -4 -38 -19 -38 -10 0 -29 8 -41 18
l-23 19 23 31 c26 36 31 37 48 20z m-1633 -45 c8 -23 -37 -63 -71 -63 -36 0
-28 28 15 57 41 28 47 28 56 6z m1763 7 c15 0 52 -58 52 -82 0 -13 -8 -18 -29
-18 -41 0 -71 28 -78 74 -6 38 -5 39 18 33 13 -4 30 -7 37 -7z m-2128 -39
c-17 -33 -60 -60 -106 -67 -56 -8 -64 -1 -33 32 30 33 74 53 117 54 29 0 32
-2 22 -19z m170 8 c0 -23 -21 -47 -51 -58 -36 -13 -89 -15 -89 -3 1 12 23 37
50 55 27 19 90 23 90 6z m2164 -31 c13 -13 27 -33 30 -44 8 -27 -20 -36 -69
-23 -36 10 -55 33 -55 68 0 30 60 29 94 -1z m179 13 c29 -11 64 -78 49 -93
-14 -14 -97 -1 -112 17 -6 7 -15 27 -20 43 -7 25 -5 32 8 35 29 8 50 7 75 -2z
m-613 -31 c15 -28 2 -70 -21 -70 -10 0 -26 11 -35 25 -16 24 -16 27 1 45 23
25 41 25 55 0z m-1480 -15 c15 -18 1 -39 -43 -62 -21 -10 -32 -12 -40 -4 -8 8
-1 21 23 46 38 40 43 41 60 20z m1589 -15 c24 -13 45 -64 37 -93 -5 -20 -11
-23 -31 -19 -37 7 -59 44 -51 87 7 37 15 41 45 25z m-1719 -24 c0 -23 -38 -63
-66 -70 -35 -9 -38 -4 -19 34 21 41 85 68 85 36z m-290 -30 c0 -14 -56 -69
-87 -85 -26 -13 -83 -15 -83 -2 0 14 49 70 74 83 26 14 78 26 89 21 4 -2 7
-10 7 -17z m160 17 c0 -28 -43 -73 -80 -84 -22 -7 -43 -10 -46 -6 -11 11 30
66 60 81 33 17 66 21 66 9z m1626 -29 c4 -14 3 -34 -2 -44 -8 -17 -12 -18 -34
-7 -31 16 -38 46 -14 64 27 20 43 16 50 -13z m-1296 -7 c0 -21 -23 -43 -63
-59 -31 -13 -32 20 -1 53 34 35 64 39 64 6z m1708 -12 c12 -14 22 -37 22 -51
0 -20 -5 -24 -30 -24 -62 0 -90 30 -90 98 0 24 71 8 98 -23z m199 -16 c23 -19
43 -66 37 -83 -13 -34 -131 -11 -138 27 -3 12 -8 35 -11 51 l-6 29 52 -6 c28
-4 58 -12 66 -18z m-737 -34 c0 -36 -18 -75 -34 -75 -16 0 -46 37 -46 57 0 16
60 54 72 47 4 -3 8 -16 8 -29z m240 15 c24 -24 27 -82 5 -100 -12 -10 -20 -7
-45 19 -25 24 -29 35 -24 58 4 15 9 31 11 36 8 13 33 7 53 -13z m-1560 -16 c0
-20 -60 -74 -82 -74 -26 0 -23 36 7 65 27 28 75 34 75 9z m228 4 c17 -17 15
-24 -13 -52 -25 -25 -62 -42 -72 -33 -14 15 37 97 61 97 6 0 17 -5 24 -12z
m-368 -23 c0 -3 -9 -23 -20 -45 -15 -30 -29 -41 -57 -49 -51 -14 -63 -14 -63
3 0 20 49 76 74 86 24 10 66 13 66 5z m1853 -43 c20 -24 31 -102 15 -103 -73
-7 -112 44 -92 118 5 19 9 20 34 12 15 -6 35 -18 43 -27z m-293 -3 c18 -33 9
-99 -13 -99 -21 0 -47 34 -47 62 0 61 36 83 60 37z m-1740 6 c0 -9 -17 -34
-38 -56 -31 -34 -46 -42 -86 -46 l-48 -6 15 29 c16 31 49 64 82 82 30 17 75
15 75 -3z m1506 0 c7 -17 -1 -52 -15 -75 -8 -12 -13 -12 -30 4 -12 11 -21 29
-21 42 0 36 55 60 66 29z m-1111 -52 c-20 -36 -89 -82 -103 -69 -12 12 32 80
67 103 47 32 63 16 36 -34z m250 47 c16 -26 -34 -80 -75 -80 -13 0 -5 34 16
68 15 23 48 30 59 12z m739 -69 c-8 -37 -27 -49 -50 -30 -23 19 -14 62 16 70
34 8 41 -1 34 -40z m814 38 c50 -17 72 -109 29 -117 -58 -11 -107 30 -107 88
0 35 3 40 24 40 12 0 37 -5 54 -11z m-1450 -24 c3 -20 -50 -85 -69 -85 -14 0
-10 48 7 81 18 35 57 38 62 4z m858 -31 c7 -26 0 -60 -15 -84 -8 -12 -13 -12
-30 4 -22 20 -28 65 -11 96 13 25 48 15 56 -16z m-1366 4 c0 -54 -56 -108
-111 -108 -19 0 -19 0 0 38 26 50 68 87 104 91 4 1 7 -9 7 -21z m1017 -19 c-3
-23 -12 -48 -20 -56 -23 -23 -48 8 -40 50 7 35 18 47 47 47 16 0 18 -6 13 -41z
m-747 16 c0 -30 -24 -63 -60 -84 -20 -11 -40 -18 -43 -15 -10 11 15 69 40 92
27 25 63 29 63 7z m360 -7 c-1 -27 -17 -50 -46 -66 -25 -13 -34 -7 -34 25 0
41 18 63 50 63 25 0 30 -4 30 -22z m999 -4 c26 -22 31 -33 31 -70 0 -49 -11
-55 -60 -29 -37 19 -52 47 -44 82 13 53 27 56 73 17z m-869 -8 c0 -29 -41 -91
-60 -91 -20 0 -25 49 -10 86 10 23 19 29 41 29 24 0 29 -4 29 -24z m128 -7 c4
-33 -29 -75 -51 -66 -20 8 -23 67 -5 85 21 21 53 10 56 -19z m-1048 -9 c0 -19
-45 -79 -71 -94 -15 -9 -45 -16 -68 -16 l-40 0 30 45 c17 25 43 52 57 60 31
16 92 20 92 5z m1380 -24 c9 -26 -7 -96 -22 -96 -22 0 -48 22 -48 41 0 30 28
79 46 79 8 0 19 -11 24 -24z m-840 7 c0 -5 -5 -24 -10 -44 -11 -38 -72 -95
-90 -84 -18 11 2 70 36 103 31 29 64 42 64 25z m1104 -51 c11 -22 12 -38 4
-75 -5 -26 -12 -47 -16 -47 -3 0 -21 14 -39 32 -37 36 -44 79 -17 116 12 18
19 20 34 12 11 -6 26 -23 34 -38z m325 11 c20 -13 22 -20 17 -51 -3 -21 -6
-43 -6 -49 0 -18 -51 -16 -78 3 -18 12 -22 25 -22 70 l0 56 33 -7 c17 -4 43
-14 56 -22z m-1715 -48 c-9 -19 -29 -44 -44 -55 -29 -20 -90 -38 -90 -26 0 4
11 28 24 55 23 45 50 66 106 83 22 7 24 -16 4 -57z m980 59 c23 -9 20 -60 -6
-102 -21 -35 -21 -35 -38 -14 -19 23 -16 63 8 100 16 25 15 24 36 16z m-564
-29 c0 -35 -24 -79 -56 -104 -37 -29 -44 -27 -44 15 0 29 8 44 39 75 45 45 61
49 61 14z m140 -55 c0 -16 -14 -42 -35 -66 -29 -32 -36 -36 -45 -24 -20 30
-11 78 22 116 30 33 33 35 45 18 7 -10 13 -30 13 -44z m288 48 c19 -19 14 -67
-10 -106 l-21 -35 -19 23 c-23 29 -23 57 2 98 21 35 30 38 48 20z m-145 -20
c6 -8 7 -27 3 -41 -8 -35 -50 -82 -64 -73 -19 12 -14 75 9 107 22 31 36 33 52
7z m541 -34 c6 -16 -23 -114 -35 -114 -10 0 -59 59 -59 71 0 5 9 28 20 49 20
39 21 40 44 24 14 -8 27 -22 30 -30z m-1121 -11 c-7 -46 -24 -71 -64 -98 -48
-31 -49 -31 -49 0 0 46 48 114 90 127 23 8 28 1 23 -29z m-299 5 c-12 -42 -34
-77 -56 -93 -27 -18 -97 -39 -106 -31 -10 11 21 86 45 111 23 22 46 30 101 34
20 1 22 -2 16 -21z m1704 -8 c30 -18 32 -24 32 -72 0 -69 -10 -84 -41 -68 -52
27 -69 51 -69 100 0 26 3 50 7 53 12 12 37 7 71 -13z m-450 -43 c16 -26 16
-29 -8 -74 -14 -26 -30 -48 -36 -50 -6 -2 -19 12 -30 32 l-19 35 25 45 c28 51
43 53 68 12z m-818 -58 c-7 -16 -31 -46 -54 -65 l-41 -35 -3 45 c-4 55 2 67
53 105 l40 30 9 -25 c5 -16 4 -36 -4 -55z m166 16 c3 -14 3 -37 0 -51 -8 -29
-81 -112 -91 -103 -3 4 -6 28 -7 53 0 42 4 52 38 87 21 21 42 39 46 39 4 0 10
-11 14 -25z m330 -48 c-9 -44 -46 -99 -64 -95 -9 2 -20 18 -26 35 -8 29 -5 39
25 83 l34 50 18 -22 c13 -16 17 -31 13 -51z m159 41 c14 -35 6 -63 -36 -116
l-17 -23 -16 23 c-9 12 -16 32 -16 44 0 24 48 104 62 104 5 0 15 -15 23 -32z
m423 10 l35 -21 -6 -61 c-9 -92 -13 -99 -48 -81 -45 24 -62 57 -54 107 8 44
21 78 32 78 3 0 21 -10 41 -22z m-744 -24 c6 -28 2 -44 -19 -79 -14 -25 -34
-49 -45 -55 -17 -9 -20 -6 -29 26 -12 42 -7 57 32 107 36 46 53 47 61 1z
m-644 -11 c-5 -20 -17 -48 -28 -62 -18 -25 -101 -72 -113 -65 -10 6 9 95 23
112 15 18 86 51 109 52 14 0 16 -6 9 -37z m1214 -34 c14 -17 26 -43 26 -57 0
-29 -30 -122 -40 -122 -3 0 -23 18 -45 40 l-38 39 27 66 c16 36 32 65 36 65 5
0 20 -14 34 -31z m-1062 -35 c-2 -21 -11 -50 -21 -64 -21 -29 -78 -70 -97 -70
-17 0 -19 56 -4 94 9 26 97 88 115 82 5 -1 8 -20 7 -42z m888 -36 c23 -38 18
-74 -17 -136 -24 -42 -26 -43 -43 -27 -11 10 -24 33 -31 52 -10 31 -8 39 22
88 18 30 37 55 41 55 5 0 17 -14 28 -32z m-716 0 c14 -55 6 -78 -43 -129 -52
-54 -74 -59 -79 -16 -6 51 16 101 60 135 50 38 54 39 62 10z m542 -100 c-3
-20 -23 -57 -43 -83 l-37 -47 -18 22 c-32 40 -17 106 45 194 l21 29 19 -40
c14 -29 18 -51 13 -75z m-362 71 c13 -69 8 -87 -43 -140 -27 -28 -54 -48 -60
-44 -6 3 -11 30 -11 58 0 48 4 57 46 105 25 28 49 52 54 52 4 0 10 -14 14 -31z
m186 -55 c0 -43 -70 -143 -102 -144 -7 0 -21 37 -23 60 -1 22 23 67 64 123
l36 48 12 -28 c7 -15 12 -42 13 -59z"/>
<path d="M555 7317 c-5 -7 -11 -19 -13 -27 -1 -10 3 -8 13 4 8 11 15 23 15 28
0 11 -3 10 -15 -5z"/>
<path d="M4008 7237 c-16 -6 -28 -15 -28 -20 0 -5 6 -6 13 -3 6 3 20 9 30 12
9 4 17 10 17 15 0 5 -1 9 -2 8 -2 -1 -15 -6 -30 -12z"/>
<path d="M556 7210 c-13 -4 -16 -9 -9 -13 7 -4 14 -3 18 2 3 6 12 8 20 4 8 -3
15 -3 15 0 0 10 -25 14 -44 7z"/>
<path d="M8807 6983 c-3 -5 1 -13 8 -20 10 -10 14 -9 19 3 3 9 6 18 6 20 0 7
-29 4 -33 -3z"/>
<path d="M4422 6547 c3 -96 6 -108 46 -191 23 -49 71 -132 106 -185 79 -119
88 -136 130 -256 62 -171 100 -215 188 -215 49 0 133 36 165 71 46 51 115 244
100 283 -9 23 -62 15 -167 -24 -135 -52 -175 -48 -212 20 -18 32 -19 48 -13
175 l6 141 -54 37 c-30 21 -106 85 -168 142 -63 57 -118 104 -123 105 -4 0 -7
-46 -4 -103z"/>
<path d="M567 6080 c-3 -11 -1 -18 3 -15 5 3 14 -3 20 -12 10 -16 10 -15 5 5
-4 15 -2 22 7 22 10 0 9 3 -2 10 -22 14 -27 12 -33 -10z"/>
<path d="M781 5486 c-9 -11 -8 -18 4 -30 9 -9 19 -16 23 -16 3 0 1 5 -6 12
-15 15 -16 42 0 32 7 -4 8 -3 4 4 -9 15 -11 15 -25 -2z"/>
</g>
</svg>
