<?xml version="1.0" standalone="no"?>
<!DOCTYPE svg PUBLIC "-//W3C//DTD SVG 20010904//EN"
 "http://www.w3.org/TR/2001/REC-SVG-20010904/DTD/svg10.dtd">
<svg version="1.0" xmlns="http://www.w3.org/2000/svg"
 width="1024.000000pt" height="1024.000000pt" viewBox="0 0 1024.000000 1024.000000"
 preserveAspectRatio="xMidYMid meet">
<metadata>
Created by potrace 1.16, written by Peter Selinger 2001-2019
</metadata>
<g transform="translate(0.000000,1024.000000) scale(0.100000,-0.100000)"
fill="#000000" stroke="none">
<path d="M9508 10212 c5 -25 4 -26 -13 -12 -15 12 -14 7 4 -19 15 -20 20 -36
14 -40 -7 -4 -5 -11 5 -21 14 -13 15 -13 10 1 -4 9 -1 16 6 16 8 0 11 -9 8
-24 -2 -13 -9 -20 -16 -17 -6 3 -2 -2 8 -10 15 -12 16 -16 5 -16 -12 0 -12 -2
1 -10 8 -5 11 -12 7 -16 -4 -4 -2 -13 4 -20 15 -19 -7 -58 -29 -49 -13 5 -12
2 3 -13 20 -19 32 -22 50 -10 14 8 13 -44 0 -55 -5 -5 5 -5 22 -2 27 5 32 4
27 -9 -3 -9 -10 -14 -14 -11 -5 3 -8 -3 -7 -13 1 -14 7 -17 29 -14 32 5 35 -3
10 -26 -10 -10 -12 -13 -5 -8 8 5 13 4 13 -3 0 -7 5 -9 10 -6 6 3 10 1 10 -4
0 -6 7 -11 16 -11 8 0 12 -4 9 -10 -3 -5 4 -11 17 -11 17 -1 18 -3 6 -6 -10
-2 -18 -5 -18 -6 0 -1 4 -18 10 -36 7 -24 6 -39 -2 -48 -8 -11 -7 -12 6 -7 12
5 16 14 13 30 -2 13 0 24 4 24 5 0 9 -10 9 -22 l0 -22 16 22 c16 23 34 29 34
12 0 -5 -7 -10 -15 -10 -8 0 -15 -5 -15 -11 0 -5 5 -7 12 -3 7 5 8 3 3 -6 -6
-10 -4 -12 9 -7 11 5 16 3 14 -5 -2 -6 -14 -13 -27 -15 -13 -2 -20 1 -16 7 3
6 -1 7 -9 4 -19 -7 -21 -24 -3 -25 16 -2 18 -2 52 6 27 6 28 5 13 -8 -10 -8
-15 -17 -11 -20 3 -4 0 -7 -7 -7 -7 0 -10 -3 -7 -6 4 -4 13 -1 22 6 13 11 14
10 9 -4 -3 -9 -10 -16 -15 -16 -5 0 -9 -5 -9 -11 0 -5 5 -7 10 -4 6 3 10 1 10
-4 0 -6 7 -11 15 -11 8 0 15 -5 15 -11 0 -5 3 -8 8 -5 4 2 16 -3 27 -11 16
-13 17 -15 3 -10 -29 10 -21 -18 8 -32 15 -6 24 -14 21 -17 -3 -3 -18 2 -33
12 l-27 18 13 -23 c11 -21 10 -23 -5 -17 -12 4 -8 -5 11 -27 16 -19 32 -32 37
-30 4 2 7 -3 7 -11 0 -9 -6 -16 -12 -17 -7 0 -3 -5 10 -11 12 -6 22 -17 22
-25 0 -8 -4 -12 -9 -8 -5 3 -12 1 -16 -5 -4 -6 -11 -8 -16 -4 -6 4 -5 11 2 20
10 12 10 15 -1 12 -8 -2 -14 2 -15 9 0 19 -9 22 -22 8 -10 -11 -9 -15 7 -20
11 -4 18 -11 14 -16 -3 -5 -9 -7 -14 -4 -5 3 -11 1 -14 -4 -7 -11 37 -23 61
-15 10 3 7 -2 -7 -10 -14 -8 -19 -15 -12 -16 7 0 10 -5 6 -11 -4 -7 -1 -10 7
-7 8 3 13 11 12 17 -2 6 1 11 5 11 19 0 20 -13 2 -33 -11 -11 -18 -23 -15 -26
3 -2 11 4 19 14 12 17 14 16 18 -13 4 -27 2 -30 -14 -21 -13 7 -16 6 -12 -4 3
-8 -2 -17 -10 -20 -10 -4 -13 -1 -10 8 3 8 -1 24 -10 37 l-16 22 0 -21 c0 -12
5 -25 11 -29 8 -4 7 -9 -2 -15 -10 -6 -11 -9 -1 -9 18 0 15 -18 -5 -23 -16 -4
-16 -5 1 -6 13 -1 17 -6 13 -21 -3 -11 0 -23 5 -27 6 -3 8 -1 5 4 -4 6 0 14 9
17 31 12 37 6 13 -15 -13 -11 -31 -18 -41 -16 -21 6 -23 -4 -6 -21 8 -8 8 -15
0 -25 -7 -8 -9 -17 -6 -20 8 -8 55 23 50 32 -11 17 12 35 27 22 12 -9 16 -9
20 1 4 10 6 10 6 0 1 -7 -10 -17 -23 -23 -21 -10 -24 -20 -17 -62 0 -5 6 -5
11 -2 6 3 10 -1 10 -10 0 -10 5 -13 13 -9 6 4 8 3 4 -1 -11 -12 -38 -15 -31
-4 3 5 -2 12 -10 15 -9 3 -13 10 -10 15 3 5 -2 9 -11 9 -12 0 -13 -4 -7 -17 5
-10 7 -24 4 -32 -2 -8 0 -11 6 -8 8 6 27 -33 19 -39 -11 -9 -47 -13 -47 -6 0
17 -28 21 -34 5 -5 -11 -2 -14 9 -9 22 8 30 -20 16 -51 -7 -16 -17 -23 -27
-19 -9 3 -12 2 -9 -5 4 -6 13 -8 20 -5 7 2 12 -2 11 -11 0 -9 5 -18 13 -21 10
-3 13 1 9 15 -4 14 0 19 14 20 16 2 17 -1 8 -13 -7 -8 -9 -14 -4 -14 5 0 1 -5
-9 -11 -9 -6 -15 -14 -13 -18 8 -12 -28 -9 -36 3 -5 7 -8 5 -8 -5 0 -9 -9 -24
-20 -34 -20 -18 -21 -18 -14 1 6 15 4 17 -6 7 -11 -10 -17 -10 -31 3 -13 12
-19 12 -25 3 -4 -7 -3 -10 4 -5 6 3 13 2 16 -3 3 -5 -5 -11 -19 -13 -13 -3
-23 -1 -22 5 1 5 -4 12 -10 14 -7 3 -13 -3 -13 -11 0 -9 6 -19 14 -22 17 -6
14 -36 -4 -42 -8 -3 -4 -11 12 -26 13 -11 18 -17 11 -12 -8 5 -28 10 -47 11
l-33 3 23 -26 c14 -14 22 -28 19 -31 -4 -3 -10 1 -15 9 -12 19 -37 21 -45 3
-3 -9 -3 -18 0 -21 3 -3 5 0 5 6 0 7 5 12 11 12 8 0 8 -4 0 -13 -7 -9 -7 -17
0 -24 6 -6 5 -10 -5 -10 -8 0 -14 3 -13 6 1 3 -2 6 -8 6 -5 0 -9 -3 -7 -7 1
-5 -3 -8 -9 -8 -5 0 -7 -4 -4 -10 3 -5 -2 -10 -11 -10 -10 0 -14 -3 -11 -6 3
-4 2 -15 -4 -25 -7 -14 -6 -19 4 -19 8 0 21 -8 28 -17 11 -15 11 -16 -1 -5 -8
6 -22 12 -32 12 -10 0 -18 7 -18 15 0 17 -25 20 -35 5 -3 -5 -1 -10 6 -10 8 0
7 -6 -4 -18 -9 -9 -14 -26 -13 -37 2 -11 -2 -26 -8 -34 -9 -12 -8 -13 4 -7 8
4 6 0 -5 -9 -11 -9 -19 -21 -17 -26 1 -6 -6 -8 -19 -4 -16 5 -19 4 -14 -5 6
-10 1 -12 -20 -7 -32 6 -55 0 -55 -15 0 -5 4 -7 9 -3 14 8 21 -9 10 -25 -7
-13 -9 -13 -9 0 0 13 -1 13 -10 0 -14 -21 -12 -30 4 -24 9 3 13 -2 12 -18 0
-13 -5 -23 -11 -24 -22 -1 -95 -25 -95 -31 0 -3 13 -3 30 0 28 6 29 6 12 -11
-9 -10 -19 -15 -22 -12 -12 15 -37 17 -37 4 0 -7 9 -16 19 -20 18 -5 16 -24
-3 -24 -6 0 -8 4 -5 9 3 5 -3 11 -15 14 -16 4 -18 3 -9 -8 9 -11 7 -12 -9 -8
-12 3 -18 10 -14 17 3 6 2 8 -2 3 -18 -16 -15 -45 4 -40 22 6 37 -12 20 -23
-8 -4 -9 -3 -5 4 4 7 1 12 -9 12 -9 0 -14 -4 -11 -8 2 -4 -5 -9 -17 -9 -13 -1
-17 1 -10 5 7 4 9 13 4 21 -6 9 -10 7 -14 -8 -4 -15 1 -25 15 -32 17 -9 18
-13 7 -20 -20 -13 -41 -11 -33 3 4 6 3 8 -4 4 -6 -3 -9 -18 -6 -32 3 -18 1
-23 -7 -18 -8 5 -10 2 -6 -8 3 -10 0 -15 -10 -14 -9 0 -18 -5 -21 -13 -3 -10
2 -11 19 -7 16 4 12 0 -11 -13 -19 -10 -39 -17 -44 -14 -5 4 -6 1 -2 -5 5 -9
13 -9 27 -2 10 6 19 8 19 6 0 -3 -12 -12 -27 -20 -16 -8 -22 -15 -15 -16 6 0
12 -8 12 -17 0 -15 -2 -16 -10 -3 -8 13 -10 12 -10 -2 0 -10 5 -18 10 -18 6 0
1 -9 -10 -20 -12 -12 -18 -26 -14 -32 4 -7 3 -8 -4 -4 -7 4 -22 0 -34 -9 -13
-9 -16 -15 -8 -13 9 2 18 -1 20 -7 3 -5 -5 -11 -17 -13 -13 -2 -23 -10 -23
-18 0 -8 4 -13 9 -9 5 3 13 0 17 -7 4 -7 4 -10 -1 -6 -4 4 -15 3 -22 -4 -11
-9 -17 -9 -24 3 -8 10 -9 9 -4 -8 4 -15 0 -25 -12 -32 -17 -10 -9 -15 17 -13
3 0 7 -8 7 -19 2 -17 -1 -18 -13 -8 -12 10 -13 9 -8 -6 6 -14 3 -16 -17 -11
-13 3 -18 3 -11 0 6 -3 12 -10 12 -15 0 -6 -4 -8 -9 -4 -5 3 -12 1 -16 -5 -3
-6 4 -10 17 -10 l22 0 -22 -16 c-13 -9 -29 -14 -36 -11 -10 4 -12 -7 -11 -44
2 -53 -7 -68 -30 -49 -10 8 -15 8 -21 -1 -4 -7 -3 -9 3 -6 6 4 16 0 22 -7 8
-10 9 -16 1 -21 -19 -12 -11 -27 11 -20 20 7 21 5 15 -26 -4 -19 -7 -45 -7
-59 0 -15 -3 -19 -6 -10 -8 19 -33 44 -33 33 0 -5 6 -15 13 -22 10 -11 7 -12
-13 -6 -14 3 -20 3 -14 -2 6 -4 17 -19 24 -33 7 -14 9 -22 5 -18 -4 4 -16 -2
-26 -14 -20 -22 -24 -38 -11 -38 12 0 13 -78 1 -86 -7 -4 -9 0 -5 13 4 11 2
31 -3 44 -7 17 -10 19 -10 7 -1 -10 -6 -18 -11 -18 -7 0 -7 -6 0 -19 5 -11 7
-28 4 -38 -5 -15 -4 -15 5 -3 12 17 10 21 16 -50 2 -19 1 -27 -2 -17 -8 29
-20 19 -15 -13 2 -16 8 -28 12 -25 5 3 12 0 16 -6 4 -8 3 -9 -4 -5 -7 4 -12 1
-12 -9 0 -8 6 -18 14 -21 11 -4 13 -12 6 -30 -6 -16 -6 -24 1 -24 6 0 7 -5 4
-10 -4 -7 -14 -6 -28 1 -21 11 -21 11 -6 -7 10 -12 15 -34 14 -61 -2 -33 1
-42 16 -46 11 -3 19 -13 18 -24 0 -14 -2 -15 -7 -3 -6 14 -14 15 -47 11 -5 -1
-3 -6 5 -11 13 -9 13 -11 0 -20 -12 -8 -12 -10 -1 -10 8 0 11 -7 8 -20 -3 -11
-2 -18 3 -15 4 3 14 -3 21 -12 10 -12 10 -14 2 -9 -7 4 -13 2 -13 -3 0 -6 10
-11 23 -11 l22 0 -25 -21 c-24 -20 -24 -20 -2 -14 18 5 22 2 22 -14 0 -12 -7
-21 -15 -21 -9 0 -12 -6 -9 -15 4 -8 1 -15 -7 -15 -7 0 -10 -3 -6 -6 3 -3 15
-3 28 1 17 6 19 9 8 17 -12 8 -12 9 0 6 22 -6 25 -28 4 -28 -17 -1 -17 -2 2
-16 20 -15 20 -15 -2 -20 -28 -8 -36 -29 -16 -46 9 -7 18 -12 20 -10 8 6 23 1
23 -8 0 -5 -3 -9 -7 -9 -22 4 -24 -3 -7 -22 19 -21 19 -22 -4 -14 -23 7 -23 6
-6 -14 11 -13 21 -17 25 -10 3 6 9 0 13 -13 5 -19 8 -21 17 -8 9 13 10 13 6
-2 -3 -9 -1 -19 6 -22 7 -3 0 -3 -15 -1 -16 2 -28 -1 -28 -6 0 -5 12 -10 28
-10 16 -1 20 -3 10 -6 -10 -2 -18 -11 -18 -19 0 -8 5 -12 10 -9 6 3 10 1 10
-4 0 -6 -7 -11 -16 -11 -8 0 -12 -5 -9 -10 4 -6 2 -17 -4 -24 -8 -9 -7 -13 4
-13 7 0 14 3 13 6 -2 22 4 22 15 1 9 -17 10 -27 3 -32 -7 -5 -6 -8 3 -8 11 0
10 -5 -5 -22 -10 -13 -12 -17 -4 -10 21 18 28 15 22 -13 -3 -17 0 -25 8 -23 7
2 15 -3 18 -11 2 -8 0 -11 -6 -7 -5 3 -12 0 -15 -8 -3 -8 1 -13 10 -12 9 0 18
-4 20 -11 3 -7 -3 -10 -16 -6 -16 4 -19 1 -14 -17 3 -12 9 -17 12 -11 9 14 34
-4 29 -20 -3 -8 2 -20 11 -27 15 -11 14 -12 0 -6 -24 8 -32 -11 -12 -27 12
-10 14 -10 9 -1 -4 6 -3 12 2 12 6 0 9 -11 8 -24 0 -13 -4 -22 -8 -19 -5 2 -8
-3 -8 -12 0 -11 5 -15 14 -12 10 4 13 1 9 -8 -3 -8 -8 -13 -12 -11 -3 2 -6 -8
-6 -24 -1 -20 3 -26 13 -22 10 3 11 7 2 12 -8 5 -8 10 -2 14 5 3 12 -1 16 -9
3 -8 1 -17 -4 -20 -6 -4 -5 -14 2 -25 7 -10 17 -16 23 -12 5 3 4 -1 -2 -9 -13
-17 -13 -79 0 -79 5 0 5 -4 2 -10 -3 -5 0 -10 7 -10 9 0 9 -3 -2 -10 -8 -5
-11 -10 -6 -10 5 0 4 -6 -2 -13 -12 -14 -4 -31 18 -40 13 -5 13 -6 0 -6 -16
-1 -26 -41 -10 -41 14 0 21 -32 9 -46 -9 -10 -8 -15 2 -19 10 -4 14 -22 13
-58 -1 -28 1 -46 3 -39 3 6 9 12 14 12 6 0 6 -8 -1 -19 -14 -27 -13 -36 4 -22
12 10 13 8 9 -9 -3 -12 -11 -19 -18 -16 -8 3 -16 -1 -18 -8 -3 -8 1 -13 11
-12 9 0 18 -7 20 -18 3 -12 0 -16 -8 -11 -9 6 -9 3 -1 -12 8 -15 7 -25 -4 -39
-22 -29 -18 -39 5 -13 l20 24 -3 -22 c-2 -12 -6 -25 -10 -29 -3 -4 1 -20 9
-37 15 -28 15 -29 -1 -23 -16 6 -16 4 -4 -10 13 -16 12 -16 -8 -6 -18 10 -21
9 -18 -6 1 -9 8 -16 15 -14 8 2 10 -3 7 -13 -4 -8 -2 -15 3 -15 6 0 10 -7 10
-15 0 -8 -4 -15 -9 -15 -6 0 -9 -9 -8 -20 1 -11 5 -20 9 -20 4 0 4 -7 1 -17
-4 -11 -3 -14 5 -9 7 4 12 1 12 -9 0 -9 -4 -14 -8 -11 -4 2 -8 -4 -9 -14 -1
-11 2 -22 8 -25 5 -4 3 -18 -6 -35 -17 -33 -20 -54 -5 -45 6 3 10 1 10 -5 0
-6 4 -9 9 -6 5 4 7 -4 3 -16 -4 -17 -2 -20 11 -15 11 4 14 2 10 -9 -3 -8 -12
-13 -19 -10 -7 3 -16 1 -19 -3 -2 -5 3 -11 13 -13 10 -3 18 -15 19 -29 2 -17
0 -20 -6 -10 -7 11 -10 10 -13 -5 -2 -10 3 -24 12 -31 12 -10 12 -12 1 -13
-11 0 -10 -5 4 -20 12 -13 14 -20 5 -20 -6 0 -10 -6 -7 -14 3 -8 1 -16 -5 -18
-7 -3 -1 -14 12 -26 19 -18 21 -22 7 -22 -10 0 -17 -8 -17 -20 0 -11 5 -20 11
-20 5 0 7 -5 4 -10 -4 -6 -11 -7 -17 -4 -7 4 -8 2 -4 -5 4 -6 11 -9 15 -7 4 3
13 1 21 -5 13 -7 12 -9 -2 -9 -11 0 -18 -8 -18 -20 0 -11 4 -20 9 -20 5 0 11
-9 14 -20 3 -11 0 -20 -5 -20 -6 0 -5 -6 2 -15 10 -12 8 -16 -11 -23 l-23 -9
22 -5 c13 -4 22 -14 22 -25 0 -13 -2 -15 -9 -5 -6 11 -10 10 -15 -4 -4 -11 -2
-23 6 -29 9 -6 13 -31 12 -70 0 -33 4 -66 9 -72 5 -7 6 -13 3 -13 -4 0 -2 -9
4 -20 7 -14 7 -20 0 -20 -5 0 -10 5 -10 10 0 6 -7 10 -17 10 -14 0 -15 -2 -1
-17 17 -20 18 -99 1 -96 -5 1 -10 -5 -10 -13 0 -8 6 -13 13 -10 18 7 11 -43
-7 -55 -11 -7 -11 -9 -1 -9 7 0 11 -4 8 -8 -2 -4 0 -14 6 -22 8 -12 9 -12 4 2
-3 10 -1 18 4 18 6 0 10 -7 10 -16 0 -9 5 -13 13 -9 6 4 4 0 -5 -8 -10 -8 -15
-17 -11 -20 3 -4 3 -7 -2 -7 -4 0 -14 8 -22 18 -12 13 -12 12 0 -8 9 -14 21
-24 27 -22 6 1 9 -2 5 -7 -3 -6 7 -17 22 -25 l28 -14 -25 -7 c-19 -4 -26 -13
-27 -33 -1 -21 0 -23 6 -9 7 18 8 18 21 1 9 -11 10 -15 3 -10 -9 4 -13 1 -13
-9 0 -11 5 -15 14 -12 8 3 16 -2 19 -14 3 -10 10 -19 16 -19 6 0 8 7 5 15 -4
8 -1 15 6 15 9 0 9 4 -1 18 -13 15 -12 16 4 3 13 -10 15 -17 6 -27 -6 -8 -8
-14 -3 -14 4 0 3 -5 -4 -12 -9 -9 -15 -9 -24 0 -16 16 -25 15 -25 -3 0 -8 6
-15 12 -15 6 0 12 -6 12 -14 0 -12 -5 -12 -26 2 l-26 16 23 -23 c26 -25 28
-36 7 -27 -8 3 -15 1 -15 -4 0 -6 5 -10 10 -10 6 0 9 -6 8 -12 -2 -8 5 -12 17
-10 11 2 16 -1 10 -5 -14 -11 -14 -85 -1 -80 6 2 10 15 8 28 -3 34 13 58 30
41 9 -9 9 -12 0 -12 -7 0 -12 -13 -12 -30 0 -16 4 -30 10 -30 9 0 9 -4 -5 -45
-5 -16 -8 -17 -16 -5 -9 13 -10 13 -6 0 2 -8 8 -15 13 -15 5 0 20 -8 34 -18
13 -9 19 -17 12 -17 -6 0 -12 -5 -12 -11 0 -5 5 -7 10 -4 6 3 10 2 10 -3 0 -6
-7 -12 -15 -16 -8 -3 -15 -10 -15 -16 0 -6 5 -8 10 -5 5 3 10 0 10 -7 0 -9 2
-10 8 -1 10 17 37 -7 36 -32 0 -11 7 -29 15 -40 15 -18 15 -19 -2 -6 -15 12
-17 12 -11 -3 3 -9 11 -16 18 -16 7 0 6 -4 -2 -9 -16 -10 -12 -56 5 -56 17 0
20 -6 27 -48 4 -24 2 -36 -4 -32 -6 4 -7 -1 -3 -11 5 -14 8 -13 20 7 14 24 14
24 10 2 -6 -26 2 -29 22 -10 8 6 6 0 -4 -15 -17 -27 -17 -28 4 -28 11 0 20 -3
20 -7 -3 -20 2 -24 16 -13 13 11 13 8 -1 -25 -8 -20 -11 -34 -6 -31 6 3 13 -6
16 -19 4 -14 11 -23 16 -20 5 3 12 1 15 -5 4 -6 3 -10 -2 -9 -23 4 -43 -2 -38
-11 4 -6 11 -8 16 -5 5 4 9 -1 9 -9 0 -9 -5 -16 -11 -16 -5 0 -7 -5 -4 -10 4
-6 10 -8 15 -5 5 3 13 -3 19 -12 6 -10 11 -13 11 -8 0 6 10 16 23 24 21 13 21
13 6 -5 -24 -28 -21 -56 4 -43 10 6 20 9 21 7 1 -2 8 -12 16 -22 8 -11 10 -17
4 -13 -7 4 -15 0 -18 -9 -3 -8 -2 -13 3 -10 5 3 12 -1 15 -10 4 -12 2 -15 -9
-10 -8 3 -15 1 -15 -4 0 -6 5 -10 10 -10 6 0 20 -9 32 -20 12 -10 26 -17 31
-13 6 3 7 1 3 -5 -3 -6 -2 -13 4 -17 5 -3 10 1 10 9 0 8 4 18 10 21 6 3 7 -1
4 -9 -4 -11 0 -16 11 -16 9 0 13 -4 10 -10 -3 -5 -2 -10 4 -10 6 0 8 -7 5 -15
-7 -18 31 -21 42 -3 5 8 2 9 -9 5 -10 -3 -17 -2 -17 3 0 13 21 13 40 0 10 -6
11 -10 3 -10 -7 0 -13 -4 -13 -9 0 -6 9 -8 20 -6 11 2 21 -2 21 -8 8 -79 14
-91 34 -64 7 10 16 14 19 8 3 -5 0 -11 -6 -14 -7 -3 2 -11 21 -19 30 -14 31
-16 12 -21 -12 -3 -19 -2 -16 3 3 4 -2 10 -10 14 -8 3 -17 0 -21 -6 -4 -6 -3
-8 3 -5 6 4 14 0 17 -9 4 -12 14 -14 36 -9 26 6 30 4 30 -15 0 -12 8 -35 17
-51 16 -27 18 -28 28 -10 9 17 11 18 25 3 13 -14 12 -15 -2 -10 -12 5 -14 2
-10 -14 4 -16 2 -19 -9 -13 -8 5 -10 4 -6 0 12 -14 39 -15 34 -1 -3 7 1 13 9
13 8 0 14 -7 15 -16 0 -10 2 -12 6 -3 5 14 33 17 33 3 0 -4 10 -8 22 -7 11 0
23 -6 25 -14 1 -8 1 -10 -2 -4 -8 17 -45 5 -38 -12 3 -8 11 -14 19 -14 8 0 14
-4 14 -10 0 -5 10 -10 22 -10 21 0 21 0 -3 -27 -21 -25 -21 -26 -2 -9 25 21
66 5 43 -18 -13 -13 -13 -26 1 -26 5 0 7 5 4 11 -4 6 2 13 14 16 l21 5 0 3979
0 3979 -369 0 -368 -1 5 -27z m95 -209 c-7 -3 -13 -9 -13 -14 0 -6 5 -7 10 -4
6 3 10 1 10 -5 0 -7 -7 -10 -15 -7 -8 4 -17 2 -20 -3 -4 -6 -13 -10 -21 -10
-25 0 12 46 38 47 13 0 17 -1 11 -4z m425 -819 c4 -4 1 -4 -5 0 -7 4 -13 3
-13 -2 0 -12 -42 -7 -67 7 -14 8 -8 9 30 7 26 -2 51 -7 55 -12z m-23 -132 c-3
-8 3 -16 14 -19 27 -7 33 -29 13 -45 -15 -12 -16 -11 -4 4 11 14 9 19 -17 34
-37 22 -46 40 -20 40 13 0 18 -5 14 -14z m-242 -339 c11 -10 17 -12 13 -5 -4
6 -2 12 3 12 17 0 13 -25 -7 -51 -15 -17 -21 -19 -27 -9 -6 9 -4 11 5 5 10 -6
12 -4 7 9 -5 11 -3 15 5 10 7 -4 8 -3 4 4 -4 7 -13 12 -20 12 -7 0 -13 7 -13
15 0 19 6 19 30 -2z m-72 -163 c6 0 7 6 3 13 -5 8 -3 8 9 -2 22 -17 12 -34
-12 -21 -10 5 -21 7 -24 4 -3 -3 -3 5 1 18 5 18 7 19 10 6 2 -10 8 -18 13 -18z
m-206 -237 c1 -15 -3 -19 -17 -15 -15 4 -16 7 -6 20 11 13 11 14 -1 7 -10 -6
-12 -4 -7 4 11 17 29 8 31 -16z"/>
<path d="M9619 9768 c7 -10 11 -25 7 -33 -3 -10 -2 -13 5 -10 5 4 18 4 27 0
16 -6 15 -8 -2 -21 -19 -14 -19 -14 5 -15 17 -1 19 -3 7 -6 -21 -5 -23 -19 -5
-29 6 -4 9 -4 5 1 -4 4 3 16 15 26 12 10 16 18 10 19 -7 0 -13 5 -13 11 0 5 4
8 9 5 11 -7 8 20 -3 31 -4 4 -11 1 -15 -6 -6 -10 -15 -6 -36 16 -16 15 -23 20
-16 11z"/>
<path d="M9793 9540 c-1 -11 2 -22 8 -25 5 -3 6 1 2 11 -5 14 -3 15 18 3 14
-7 19 -14 11 -17 -6 -2 -12 -8 -12 -13 0 -14 18 -1 30 21 8 16 8 18 -5 14 -8
-4 -15 -1 -15 7 0 7 -3 9 -7 6 -3 -4 -11 -3 -17 3 -8 6 -12 3 -13 -10z"/>
<path d="M5583 9394 l-30 -37 -95 2 c-80 1 -117 -4 -239 -35 -167 -42 -344
-56 -452 -34 -128 25 -222 12 -350 -49 -158 -76 -238 -184 -277 -377 -23 -114
-46 -173 -102 -261 -39 -62 -83 -161 -75 -170 9 -8 245 36 299 56 133 49 518
-11 641 -100 66 -48 186 -43 289 11 170 89 476 135 614 91 33 -10 100 -24 149
-30 50 -7 102 -15 118 -17 25 -5 27 -3 27 26 0 51 -45 170 -106 281 -62 114
-77 152 -99 246 -32 140 -102 252 -191 309 -36 23 -53 41 -57 61 -13 62 -30
69 -64 27z"/>
<path d="M9793 8823 c-19 -7 -16 -21 5 -19 11 0 16 -5 14 -16 -1 -9 2 -19 7
-23 6 -3 10 8 9 30 -1 20 -4 31 -8 24 -5 -6 -9 -7 -11 -2 -2 6 -10 8 -16 6z"/>
<path d="M4258 8366 c-135 -36 -176 -138 -124 -311 50 -167 209 -240 444 -206
145 21 193 62 262 227 41 98 40 146 -2 188 -85 85 -424 144 -580 102z"/>
<path d="M5463 8360 c-229 -50 -291 -102 -264 -225 14 -62 74 -191 103 -222
93 -100 458 -88 554 19 89 97 122 302 58 369 -75 79 -250 102 -451 59z"/>
<path d="M9305 8259 c-19 -9 -19 -9 2 -5 13 2 24 -2 27 -11 4 -10 10 -11 25
-4 10 6 21 7 25 4 3 -3 6 -1 6 5 0 15 -27 16 -35 1 -5 -7 -11 -5 -18 4 -9 11
-18 12 -32 6z"/>
<path d="M3740 8200 c0 -70 43 -277 106 -515 55 -205 49 -193 87 -155 36 35
42 36 84 11 55 -34 80 -93 118 -279 67 -332 119 -418 334 -559 47 -31 109 -77
137 -102 245 -223 502 -230 793 -22 53 37 140 94 194 125 126 74 224 165 270
254 46 88 59 135 107 397 58 319 123 547 186 646 21 34 72 80 157 142 55 41
89 117 52 117 -28 0 -72 -28 -142 -90 -74 -66 -77 -66 -88 15 -8 67 -17 80
-42 67 -34 -19 -43 -38 -73 -151 -34 -130 -55 -174 -107 -224 -79 -77 -212
-112 -390 -103 -227 11 -273 44 -372 261 -68 152 -78 165 -128 165 -40 0 -50
-14 -119 -173 -91 -208 -158 -250 -399 -251 -214 -1 -327 37 -391 131 -25 38
-71 178 -80 245 -14 105 -71 98 -81 -10 -5 -55 -23 -79 -23 -31 0 56 -102 149
-163 149 -26 0 -27 -2 -27 -60z m213 -245 c18 -17 67 -218 67 -271 l0 -35 -74
60 c-83 68 -102 104 -93 178 8 71 61 107 100 68z m1371 -360 c26 -69 -5 -123
-76 -132 -24 -3 -54 -15 -68 -28 -76 -69 -155 -72 -244 -10 -52 36 -60 38
-121 36 -95 -3 -144 46 -114 113 20 43 60 46 52 4 -7 -38 17 -61 50 -49 49 19
81 12 157 -34 88 -53 111 -55 171 -16 36 23 50 40 69 86 14 35 31 60 44 65 25
9 70 -11 80 -35z m-309 -468 c28 0 84 3 125 8 139 14 390 -81 262 -100 -20 -2
-75 -14 -122 -26 -237 -59 -355 -62 -549 -14 -80 20 -111 24 -133 16 -37 -13
-36 1 5 35 71 60 192 97 292 88 39 -4 93 -7 120 -7z m114 -292 c23 -23 -116
-40 -201 -25 -73 13 -73 13 -43 27 28 13 231 11 244 -2z"/>
<path d="M0 8119 c0 -5 4 -9 8 -9 5 0 9 -7 9 -15 0 -8 -4 -15 -9 -15 -4 0 -8
-8 -7 -17 0 -11 3 -13 6 -5 2 6 9 10 14 6 5 -3 9 4 9 15 0 10 4 21 10 23 5 2
-2 8 -15 15 -14 6 -25 7 -25 2z"/>
<path d="M57 8053 c-4 -3 -1 -13 5 -22 10 -13 10 -14 -2 -3 -8 6 -24 12 -37
12 l-23 0 1 -2972 c0 -1635 3 -2968 5 -2961 3 7 13 9 22 6 15 -5 15 -4 0 8
-13 10 -15 18 -8 29 5 8 10 12 10 7 0 -4 11 0 25 9 23 15 25 15 25 0 0 -22 8
-20 31 6 11 13 19 19 18 13 -3 -21 1 -35 11 -35 6 0 10 7 10 15 0 14 10 18 27
13 5 -2 7 -7 5 -13 -2 -5 7 0 20 13 14 12 28 19 32 15 4 -4 4 0 1 8 -3 9 -13
16 -21 16 -8 0 -13 -6 -10 -13 3 -8 1 -16 -5 -19 -5 -4 -9 -3 -8 2 4 21 -2 34
-13 27 -6 -4 -8 -3 -5 3 7 11 46 11 64 0 8 -5 11 -1 10 12 -1 15 -7 18 -26 14
-14 -2 -22 -1 -18 3 4 4 23 8 43 9 38 3 54 17 54 47 0 10 3 17 8 16 15 -3 61
22 74 41 8 12 18 18 21 15 3 -4 13 1 22 10 9 9 21 13 27 10 6 -4 8 1 4 14 -8
26 13 41 26 18 5 -9 17 -16 26 -16 16 1 16 1 -1 11 -9 6 -15 14 -12 20 9 14
27 11 19 -3 -5 -10 -4 -10 6 -1 15 13 4 36 -13 26 -7 -3 -3 3 7 15 23 27 30
28 21 5 -5 -14 -3 -15 5 -7 9 9 7 19 -6 40 -18 28 -18 28 -1 15 17 -13 18 -12
11 14 -5 20 -4 26 5 21 6 -4 9 -12 6 -17 -4 -5 -1 -9 4 -9 6 0 11 4 11 10 0 5
7 7 16 3 14 -5 15 -3 5 15 -14 27 -14 32 3 26 8 -3 17 0 22 7 4 8 3 10 -4 5
-8 -5 -12 0 -12 13 0 14 6 21 19 21 12 0 18 -7 17 -17 0 -10 6 -18 14 -19 8 0
9 1 3 3 -7 3 -13 9 -13 14 0 6 4 7 10 4 6 -3 10 -2 10 4 0 5 -4 12 -10 16 -5
3 -7 12 -4 20 4 8 9 13 13 11 4 -3 13 -1 21 5 12 7 10 9 -8 9 -13 0 -20 4 -17
10 4 6 11 7 17 4 7 -5 9 0 6 14 -5 19 -4 20 15 10 21 -11 21 -10 7 7 -14 17
-13 18 2 12 13 -4 16 -1 13 14 -2 10 1 19 7 19 7 0 4 6 -5 12 -12 9 -14 17 -7
28 8 12 10 12 10 -5 0 -16 2 -17 9 -5 6 8 8 17 5 21 -2 4 2 10 8 12 10 4 10 6
1 6 -7 1 -13 5 -13 11 0 5 7 7 15 3 9 -3 15 -2 14 3 -6 26 14 84 29 82 8 -2
17 3 19 10 4 9 -2 11 -22 6 l-27 -7 17 27 c10 14 14 26 10 26 -4 0 -3 6 2 13
17 22 24 49 10 41 -6 -4 -1 6 13 22 14 16 18 23 10 17 -22 -20 -32 -15 -20 8
6 11 10 30 8 42 -2 12 3 27 10 32 10 8 10 17 -4 43 -19 38 -11 55 12 26 14
-16 14 -15 0 9 -12 19 -13 26 -4 25 7 -2 12 4 10 13 -1 10 6 19 18 22 11 3 20
11 20 17 0 10 -3 10 -15 0 -10 -8 -15 -9 -15 -2 0 7 -8 9 -18 5 -9 -3 -15 -4
-12 -2 40 33 52 42 46 32 -4 -7 -2 -13 3 -13 14 0 14 13 0 27 -13 13 6 57 21
48 6 -3 7 1 4 9 -3 9 -11 13 -18 9 -6 -4 -5 1 3 10 12 16 12 17 -5 11 -18 -5
-18 -5 -1 6 13 8 15 16 8 28 -7 13 -3 25 15 49 20 27 22 33 9 33 -9 0 -13 -4
-10 -10 3 -6 -1 -7 -10 -3 -9 3 -12 8 -7 12 10 6 12 11 12 32 0 5 5 7 12 3 6
-4 8 -3 4 4 -3 6 -2 13 4 17 15 9 12 25 -5 25 -17 0 -21 35 -5 45 5 3 7 0 4
-8 -3 -8 -1 -18 5 -22 7 -3 8 0 5 9 -3 9 -1 16 4 16 11 0 10 20 -4 54 -5 13
-4 17 3 13 6 -4 14 0 17 9 9 24 7 31 -4 14 -8 -13 -10 -12 -10 3 0 9 7 17 15
17 13 0 14 4 5 20 -6 11 -7 20 -2 20 5 0 9 10 8 23 -1 14 -7 21 -16 19 -9 -2
-6 6 9 22 14 14 20 26 14 26 -6 0 -14 7 -17 16 -4 10 -2 13 6 8 7 -5 9 -2 5 8
-7 20 3 31 17 19 8 -6 11 1 11 25 1 33 -8 44 -20 24 -3 -5 -1 -10 5 -10 6 0 8
-4 5 -10 -4 -6 -11 -5 -20 3 -10 9 -10 15 -1 26 8 12 8 13 -1 7 -7 -4 -13 -3
-13 2 0 6 6 12 14 15 17 7 18 47 1 44 -13 -2 -7 44 7 58 8 7 9 6 4 -2 -5 -9
-2 -11 10 -6 16 6 16 7 -1 19 -10 7 -21 11 -26 9 -4 -3 -6 7 -4 22 2 16 0 33
-4 38 -3 6 2 3 11 -7 9 -10 19 -14 22 -9 4 5 2 12 -3 16 -6 3 -7 13 -4 22 5
12 3 14 -8 8 -12 -8 -12 -6 0 8 7 9 10 17 6 17 -4 0 -2 7 5 16 11 12 11 15 -1
12 -8 -2 -13 3 -11 11 3 12 0 12 -13 1 -13 -11 -15 -10 -9 4 3 9 11 16 17 16
6 0 3 6 -7 13 -17 12 -17 14 -2 20 9 4 16 2 16 -4 0 -6 5 -7 11 -4 6 5 4 12
-8 21 -10 7 -14 14 -9 14 5 0 3 7 -4 16 -8 8 -9 14 -4 13 21 -4 23 2 8 26 -10
15 -12 25 -5 25 6 0 11 -4 11 -10 0 -5 3 -10 8 -10 4 0 7 13 7 29 0 16 -3 27
-6 25 -4 -2 -9 5 -12 16 -3 11 -2 18 1 16 4 -2 8 10 8 26 1 24 -1 27 -8 14
-13 -24 -31 -20 -18 4 7 14 7 20 0 20 -5 0 -10 5 -10 11 0 5 6 7 12 3 7 -5 2
5 -10 21 -13 16 -18 31 -13 34 15 10 32 93 18 88 -7 -2 -11 -11 -11 -20 1 -9
-2 -15 -6 -12 -5 3 -11 -1 -13 -7 -4 -9 -6 -9 -6 -1 -1 6 11 26 26 44 16 18
23 30 17 26 -7 -4 -15 0 -18 9 -4 9 -2 12 5 8 7 -4 9 1 7 12 -2 11 -10 18 -18
16 -11 -3 -11 0 -1 11 9 12 9 16 -1 20 -8 3 -6 6 6 6 12 1 16 -4 12 -14 -3 -8
-1 -15 5 -15 21 0 3 35 -19 38 -22 3 -22 5 -6 17 17 12 17 14 1 39 -15 22 -15
26 -2 26 8 0 15 5 15 11 0 5 -4 8 -9 5 -4 -3 -17 2 -27 10 -10 9 -14 13 -7 10
8 -4 10 4 8 26 -2 18 -4 43 -4 56 -1 13 -5 21 -10 18 -5 -3 -11 3 -14 15 -4
14 0 22 13 27 26 10 28 16 7 37 -12 12 -17 28 -15 47 3 20 0 28 -11 28 -11 0
-12 3 -4 11 12 12 6 49 -9 49 -5 0 -4 -8 1 -19 8 -15 7 -20 -5 -25 -12 -4 -15
-2 -11 9 4 8 2 17 -3 20 -15 9 -12 42 5 49 17 6 20 26 4 26 -5 0 -7 -4 -4 -10
15 -24 -6 -7 -26 21 -26 37 -36 131 -13 122 8 -3 13 -8 12 -11 -2 -19 3 -32
13 -32 8 0 7 6 -2 17 -8 9 -12 17 -9 17 2 1 -3 11 -12 24 -9 13 -17 19 -19 14
-2 -6 -10 -3 -18 5 -11 12 -11 14 0 12 28 -3 34 1 34 25 0 13 -3 22 -6 20 -4
-2 -10 3 -13 12 -9 22 -8 26 6 18 7 -4 8 -3 4 4 -4 6 -14 8 -23 5 -12 -5 -14
-3 -8 7 6 10 4 12 -7 7 -13 -5 -15 -1 -9 21 11 42 -7 95 -30 89 -6 -1 -18 8
-26 21 -14 20 -14 22 1 16 9 -3 13 -10 10 -15 -3 -5 -1 -9 4 -9 5 0 10 11 10
24 0 17 -5 23 -14 19 -9 -3 -14 1 -14 12 0 9 5 13 11 9 8 -4 8 -1 1 12 -6 11
-11 24 -13 29 -2 6 -10 8 -18 7 -13 -3 -13 -1 -1 13 10 12 10 19 2 27 -8 8 -7
15 6 25 15 13 15 13 -7 7 -16 -4 -21 -3 -17 5 4 6 2 11 -4 11 -7 0 -9 -7 -6
-16 3 -9 6 -22 6 -30 0 -9 5 -12 13 -8 6 4 8 3 4 -1 -11 -12 -38 -15 -31 -4 8
13 -15 69 -28 69 -5 0 -7 4 -4 9 7 11 -22 23 -37 15 -7 -3 -4 1 6 9 10 8 19
24 20 35 1 13 7 18 17 15 8 -2 5 2 -8 9 -12 8 -19 17 -16 21 4 4 2 7 -5 7 -8
0 -11 -6 -7 -16 11 -29 -4 -33 -31 -8 -25 24 -26 47 -1 27 9 -6 24 -4 48 8 19
10 30 18 24 19 -6 0 -17 11 -24 25 -10 18 -16 22 -22 13 -5 -9 -8 -6 -8 10 0
12 5 22 10 22 6 0 5 6 -2 14 -7 7 -20 11 -28 8 -12 -4 -11 -1 2 14 14 16 15
23 6 32 -7 7 -9 12 -5 12 4 0 -2 9 -14 21 -20 20 -22 56 -3 52 5 -1 11 8 11
19 2 20 1 20 -12 2 -7 -11 -17 -16 -21 -12 -4 4 -2 13 4 21 13 15 -1 43 -17
33 -6 -4 -11 0 -11 9 0 13 4 14 21 4 16 -8 24 -8 33 2 8 9 8 10 -2 5 -9 -6
-11 -1 -8 18 3 14 0 29 -6 32 -7 5 -8 2 -3 -5 5 -9 1 -9 -14 1 -19 12 -19 13
-3 20 28 11 54 9 46 -4 -5 -7 -3 -8 6 -3 10 6 10 11 -3 20 -9 7 -14 15 -10 18
3 4 2 7 -4 7 -12 0 -53 34 -53 44 0 4 4 5 9 1 5 -3 11 0 14 7 2 7 3 5 2 -4 -2
-10 1 -18 6 -18 9 0 11 5 13 56 2 31 -6 36 -31 21 -6 -4 -15 -2 -19 4 -4 7 -3
9 4 5 5 -3 12 -2 14 4 1 5 13 11 26 13 12 2 28 9 35 16 6 7 8 12 2 11 -30 -6
-38 2 -16 14 24 13 24 14 4 20 -12 4 -24 14 -27 23 -5 13 -4 14 9 3 19 -16 47
-6 39 15 -3 8 -10 12 -15 9 -5 -3 -9 4 -9 15 0 13 -5 19 -14 15 -8 -3 -17 1
-22 8 -4 7 -4 10 1 6 4 -4 14 -3 22 3 10 9 13 8 13 -2 0 -10 3 -10 12 -1 16
16 41 16 32 0 -5 -9 -2 -9 9 1 9 7 17 16 17 19 0 3 -3 3 -6 -1 -8 -7 -66 13
-82 30 -11 11 -10 12 10 9 13 -3 23 -5 23 -6 0 -1 7 -3 16 -5 9 -1 16 3 16 11
0 9 -4 11 -12 4 -7 -6 -16 -5 -23 2 -18 18 -14 26 11 23 14 -2 24 2 24 10 0 7
-8 10 -19 7 -10 -2 -18 1 -18 7 0 7 6 9 13 5 9 -5 9 -4 0 6 -13 15 -36 4 -27
-13 4 -7 3 -8 -1 -4 -11 9 -16 39 -7 33 4 -2 16 0 27 5 17 6 17 8 3 8 -11 1
-15 6 -12 16 4 8 1 15 -6 15 -6 0 -8 5 -5 10 7 12 26 14 24 3 -3 -20 2 -31 18
-37 15 -6 15 -5 -1 13 -11 12 -14 21 -6 26 5 3 8 11 4 16 -3 5 -10 7 -15 4 -5
-4 -9 -3 -10 2 0 4 -2 16 -4 26 -2 9 1 15 6 11 5 -3 6 -10 3 -16 -4 -6 -1 -8
7 -6 8 3 13 10 12 16 -1 5 4 13 13 16 8 3 12 2 9 -3 -3 -5 -1 -12 5 -16 5 -3
10 3 10 14 0 24 -4 25 -31 10 -18 -9 -19 -7 -14 18 5 21 4 24 -4 13 -8 -12
-10 -11 -8 8 0 12 9 25 19 28 10 3 18 10 18 15 0 6 -5 7 -12 3 -7 -5 -8 -3 -4
5 5 7 15 10 25 6 13 -5 14 -4 3 7 -10 10 -16 10 -32 0 -12 -7 -20 -8 -20 -2 0
5 4 10 10 10 12 0 2 73 -12 81 -15 10 17 18 51 14 29 -4 30 -3 20 17 -11 21
-12 21 -25 3 -14 -18 -14 -18 -14 0 0 16 -2 16 -18 4 -10 -8 -4 -1 12 15 l31
28 -31 -15 -30 -16 4 30 c2 16 8 26 13 23 5 -3 9 1 9 8 0 10 3 9 11 -2 9 -13
10 -13 6 0 -2 8 -11 14 -20 14 -9 -1 -18 5 -21 12 -6 17 -5 17 31 3 23 -8 26
-8 15 3 -7 7 -16 13 -20 14 -4 0 -18 6 -32 13 -23 11 -23 11 -2 7 24 -5 27 1
12 24 -7 11 -10 11 -10 2 0 -7 -5 -10 -11 -7 -16 10 21 33 45 28 20 -3 20 -3
1 5 -10 5 -30 8 -42 6 -13 -1 -24 3 -24 9 -6 54 -4 64 12 60 9 -3 20 0 23 6 5
7 1 8 -10 4 -14 -5 -16 -3 -11 11 4 10 3 15 -3 11 -6 -4 -8 6 -6 24 2 17 0 31
-5 31 -5 0 -6 8 -3 18 5 14 4 15 -5 2 -6 -8 -15 -15 -21 -15 -5 0 -9 -4 -7
-10 1 -5 8 -9 15 -7 7 2 12 -8 12 -28 0 -18 -4 -29 -10 -25 -5 3 -10 1 -10 -5
0 -6 -5 -8 -11 -4 -8 4 -7 9 2 14 10 7 9 13 -3 32 -11 17 -13 29 -6 41 6 11 5
17 -2 17 -7 0 -8 6 0 19 15 30 12 48 -5 25 -14 -18 -16 -18 -29 -1 -14 18 -14
18 -19 0 -3 -10 -5 -4 -4 12 2 26 -1 30 -21 27 -15 -2 -23 1 -21 10 4 33 -1
44 -12 28 -9 -12 -10 -11 -6 6 4 19 2 20 -19 10 -13 -6 -24 -14 -24 -18 0 -5
-4 -8 -9 -8 -4 0 -6 12 -3 26 3 18 1 25 -6 20 -6 -3 -14 -1 -18 5 -4 7 -3 9 4
5 6 -3 13 -2 17 4 3 5 -1 10 -9 10 -8 0 -20 9 -26 20 -6 11 -16 17 -22 14 -8
-5 -9 -1 -4 11 5 15 4 16 -9 5 -9 -7 -15 -9 -14 -4 4 23 -2 26 -17 8 -15 -19
-15 -19 -11 2 4 18 1 20 -16 16 -17 -4 -19 -2 -14 18 4 16 3 20 -5 12 -6 -6
-17 -8 -25 -5 -12 5 -12 7 -1 14 10 7 10 9 -3 9 -9 0 -19 -3 -22 -7z m457
-1755 c-5 -8 -40 -5 -50 4 -3 4 0 16 6 29 l12 22 18 -24 c10 -13 16 -27 14
-31z m48 -111 c7 -13 5 -17 -7 -17 -8 0 -18 -1 -22 -2 -3 -2 -7 7 -9 19 -4 26
23 26 38 0z"/>
<path d="M264 7946 c2 -33 10 -40 26 -21 8 10 9 15 1 15 -6 0 -10 5 -8 11 1 6
-3 13 -9 16 -6 2 -10 -7 -10 -21z"/>
<path d="M3368 7413 c-11 -3 -15 -10 -11 -20 5 -13 2 -15 -11 -10 -12 5 -15 3
-11 -6 4 -6 -1 -3 -9 7 -13 17 -18 18 -29 6 -7 -8 -8 -10 -1 -7 7 4 14 0 18
-8 3 -8 2 -14 -3 -12 -16 4 -71 -47 -72 -67 0 -12 -3 -15 -6 -8 -10 25 -19 11
-15 -25 3 -31 2 -36 -9 -26 -10 10 -15 9 -25 -5 -11 -14 -9 -20 14 -39 15 -12
21 -22 15 -23 -7 0 -13 5 -13 11 0 5 -4 8 -9 4 -5 -3 -12 -1 -16 5 -3 5 -12
10 -18 10 -8 0 -8 -3 1 -9 7 -4 12 -14 10 -21 -2 -7 3 -15 11 -18 9 -3 11 0 6
8 -6 9 -4 11 4 5 17 -10 1 -26 -28 -28 -11 -1 -21 -5 -21 -10 0 -5 8 -6 18 -3
14 5 13 3 -3 -10 -11 -8 -19 -22 -17 -31 2 -10 -1 -12 -10 -7 -8 5 -6 -2 5
-19 21 -32 22 -41 2 -33 -14 5 -13 2 0 -24 18 -36 25 -38 19 -7 -5 22 -5 22 5
0 14 -31 3 -62 -20 -58 -11 2 -17 0 -14 -6 4 -5 10 -7 15 -4 4 3 16 -8 25 -23
l18 -27 -21 18 c-19 18 -20 18 -18 1 2 -10 8 -20 14 -22 7 -2 12 -11 12 -19 0
-10 6 -13 16 -9 8 3 12 2 9 -4 -3 -6 -14 -10 -23 -11 -14 0 -13 -2 3 -8 14 -6
24 -3 34 8 7 9 5 3 -4 -13 -9 -16 -12 -26 -7 -22 6 3 14 1 18 -5 4 -7 3 -9 -4
-5 -6 3 -13 2 -16 -3 -3 -5 1 -12 10 -15 13 -5 14 -9 4 -21 -12 -15 -4 -21 23
-16 5 1 6 -3 2 -9 -3 -5 -1 -10 4 -10 6 0 11 -5 11 -11 0 -5 -6 -7 -12 -3 -8
4 -10 3 -5 -2 5 -5 13 -10 18 -10 5 -1 14 -2 19 -3 6 0 10 -5 10 -11 0 -5 -8
-7 -17 -5 -10 3 -4 -1 14 -10 23 -11 31 -20 28 -35 -2 -11 1 -20 6 -20 6 0 7
-5 3 -12 -4 -6 -3 -8 4 -4 6 3 13 2 17 -4 4 -6 11 -7 17 -4 7 4 8 2 4 -4 -4
-7 -3 -12 3 -12 5 0 18 -13 27 -29 10 -17 21 -28 26 -25 4 3 8 0 8 -7 0 -7 2
-10 6 -7 8 9 174 -145 174 -162 0 -5 -7 -16 -16 -24 -21 -22 -6 -20 76 10 73
26 94 25 82 -4 -20 -47 -50 -82 -89 -106 -45 -27 -49 -45 -23 -96 6 -10 -6
-23 -43 -45 -64 -38 -70 -60 -26 -95 l32 -27 -41 -38 c-54 -48 -54 -72 -2 -92
l41 -16 -28 -31 c-77 -84 -77 -100 -2 -112 48 -8 48 -10 4 -61 -52 -61 -40
-81 50 -87 60 -3 61 -5 20 -65 -55 -79 -33 -109 58 -81 50 15 53 10 33 -43
-38 -99 -11 -131 86 -102 70 22 69 23 56 -44 -18 -103 14 -124 108 -70 l54 30
0 -58 c0 -93 40 -109 126 -48 l49 35 10 -63 c17 -103 42 -113 121 -47 59 48
60 48 67 8 17 -103 50 -114 127 -42 l49 46 12 -28 c45 -115 46 -115 124 -34
31 34 58 60 59 58 1 -2 11 -22 21 -46 39 -90 71 -87 134 12 50 79 56 83 71 47
38 -93 83 -90 134 12 l39 77 48 -45 c67 -62 83 -57 114 35 21 64 26 66 74 35
76 -47 118 -16 137 103 8 50 4 48 49 18 91 -62 145 -30 145 88 0 27 2 28 35
22 19 -3 50 -9 68 -12 48 -8 66 11 78 86 12 78 6 73 66 59 83 -19 107 -1 111
83 l3 67 63 0 c101 -1 129 27 107 106 -13 48 -8 55 38 55 112 0 132 34 86 143
-6 14 -1 17 31 18 109 2 129 19 96 82 -28 53 -28 57 6 57 15 0 44 5 66 11 37
10 38 12 33 46 -4 20 -13 43 -22 53 -20 22 -19 39 3 38 36 -3 90 13 106 31 21
23 13 43 -30 76 -33 26 -45 55 -22 55 6 0 19 7 29 16 16 14 21 13 59 -6 23
-12 39 -17 36 -12 -3 5 -19 15 -34 21 l-29 12 33 36 c19 20 34 40 34 44 0 5 6
9 13 9 12 0 47 34 47 46 0 9 61 64 71 64 5 0 14 11 19 25 5 14 16 25 25 25 8
0 15 6 15 14 0 7 9 16 21 19 12 3 18 10 14 16 -3 6 -11 8 -17 5 -7 -5 -8 -2
-4 5 5 7 14 10 22 7 8 -3 14 1 14 11 0 9 3 13 7 10 7 -8 33 11 33 25 0 5 -6 6
-12 2 -7 -4 -6 1 3 12 9 10 14 26 12 34 -3 9 2 8 12 -5 17 -20 17 -20 11 2
-16 54 -17 70 -1 49 15 -19 15 -19 15 2 0 12 -5 22 -12 22 -6 0 -4 8 6 19 17
18 17 20 -1 31 -16 10 -16 11 0 6 11 -4 17 0 17 11 0 13 2 14 18 2 15 -12 16
-12 5 2 -9 10 -9 19 -2 26 6 6 5 10 -5 10 -8 0 -13 -4 -11 -8 3 -4 -2 -10 -11
-13 -25 -10 -26 -7 -4 16 l20 22 -22 13 -23 14 25 -6 25 -6 -25 15 c-14 9 -20
15 -13 16 6 0 11 9 10 20 -1 12 -7 18 -13 16 -8 -3 -11 3 -8 20 3 16 1 23 -6
19 -5 -3 -10 1 -10 9 0 9 4 16 9 16 5 0 7 9 4 20 -3 11 -14 20 -24 20 -11 0
-18 3 -18 8 4 21 -4 56 -8 40 -2 -10 -8 -18 -13 -18 -5 0 -7 7 -3 16 5 13 1
15 -18 10 -20 -6 -21 -5 -6 4 9 6 17 16 17 23 0 7 -4 6 -10 -3 -6 -10 -10 -11
-10 -2 0 6 -7 12 -15 12 -8 0 -15 5 -15 11 0 8 -4 8 -12 2 -20 -16 -50 -13
-37 4 9 10 7 13 -7 15 -34 2 -39 3 -53 12 -11 7 -13 5 -8 -10 7 -18 7 -18 -8
0 -11 14 -15 16 -15 5 -1 -10 -3 -9 -11 4 -11 19 -29 23 -29 6 0 -5 5 -7 12
-3 7 4 8 3 4 -4 -10 -17 -26 -15 -26 3 0 18 -16 20 -26 3 -4 -6 -3 -8 2 -5 6
3 11 -3 11 -14 2 -18 0 -18 -17 3 -18 21 -19 22 -20 4 0 -15 -3 -17 -11 -9 -8
8 -16 7 -30 -5 -21 -18 -23 -19 -70 -21 -16 0 -28 -5 -25 -10 3 -5 -1 -12 -10
-15 -8 -3 -12 -2 -9 4 3 6 2 10 -3 10 -6 0 -13 -11 -16 -25 -4 -16 -11 -22
-21 -19 -8 3 -22 -1 -31 -10 -8 -9 -20 -13 -26 -10 -6 4 -8 2 -5 -3 8 -12 -34
-43 -57 -43 -8 0 -20 -8 -25 -17 -6 -10 -11 -15 -11 -11 0 12 -90 -77 -90 -89
0 -5 -9 -18 -20 -28 -11 -10 -20 -26 -20 -37 0 -10 -4 -18 -9 -18 -8 0 -36
-82 -36 -105 0 -5 -6 -16 -13 -23 -7 -8 -10 -18 -7 -23 4 -5 1 -9 -4 -9 -6 0
-11 -9 -11 -19 0 -58 -70 -14 -99 62 -11 28 -20 46 -20 39 -3 -50 48 -117 123
-164 28 -18 74 -50 101 -72 28 -23 52 -42 54 -43 2 -2 2 -5 -1 -8 -8 -8 -86
22 -118 45 -66 47 -84 40 -115 -42 -87 -228 -250 -445 -481 -639 -449 -376
-996 -430 -1294 -130 -216 218 -232 492 -44 780 l66 101 -66 72 c-94 103 -183
302 -186 418 -1 8 -7 29 -15 45 l-13 30 5 -37 c5 -32 3 -38 -13 -38 -15 0 -16
-2 -5 -9 21 -14 -46 -31 -99 -25 -25 2 -53 5 -63 5 -11 0 -15 5 -10 12 4 7 -2
5 -12 -3 -10 -8 -16 -10 -12 -3 5 8 -6 16 -33 23 -22 6 -40 15 -40 21 0 6 -8
9 -17 8 -30 -2 -38 0 -59 19 -20 19 -54 36 -66 34 -5 -1 -8 3 -8 10 0 6 -3 8
-7 5 -3 -4 -11 1 -18 10 -7 9 -25 16 -44 15 -17 0 -29 3 -26 8 3 5 -4 14 -16
20 -17 10 -20 9 -14 -2 5 -7 -4 -2 -18 11 -19 17 -27 20 -27 10 -1 -11 -4 -10
-14 4 -15 20 -61 24 -50 5 5 -10 4 -10 -6 -1 -11 10 -11 15 0 28 7 8 11 14 9
14 -2 -1 -12 -3 -21 -6z m2826 -869 c31 -32 32 -40 5 -54 -23 -13 -69 10 -69
34 0 50 25 58 64 20z m253 -5 c56 -27 61 -57 6 -34 -44 18 -86 55 -63 55 7 0
33 -9 57 -21z m-91 -30 c9 -10 14 -22 11 -25 -18 -18 -106 33 -93 54 9 14 58
-3 82 -29z m-2217 -63 c-28 -26 -49 -35 -89 -41 -31 -4 -60 -15 -72 -27 -27
-27 -69 -48 -81 -41 -13 8 44 63 66 63 10 0 31 9 46 19 29 21 125 59 151 60 9
0 0 -13 -21 -33z m2459 14 c35 -21 38 -43 8 -48 -21 -4 -62 21 -76 48 -15 28
23 27 68 0z m-466 -27 c29 -26 23 -53 -11 -53 -38 0 -56 22 -41 49 13 25 27
26 52 4z m166 -9 c45 -32 47 -54 4 -54 -40 0 -82 28 -82 55 0 20 49 20 78 -1z
m174 -11 c25 -22 23 -33 -7 -33 -29 0 -85 26 -85 39 0 27 59 24 92 -6z m-2592
-18 c0 -10 -65 -37 -97 -40 -46 -4 -31 9 32 28 56 17 65 19 65 12z m230 -21
c0 -18 -24 -44 -40 -44 -24 0 -25 8 -3 32 15 17 43 25 43 12z m1950 -60 c20
-52 2 -73 -45 -52 -29 13 -31 20 -9 53 21 32 42 32 54 -1z m529 -6 c42 -45 39
-51 -20 -46 -86 9 -126 78 -45 78 27 0 42 -8 65 -32z m-2583 5 c-2 -10 -13
-19 -24 -21 -26 -4 -29 13 -4 27 25 15 31 13 28 -6z m2219 -9 c30 -33 31 -41
5 -49 -30 -9 -94 25 -98 53 -5 34 60 32 93 -4z m-2370 -4 c0 -8 -4 -15 -10
-16 -5 0 -23 -6 -39 -13 -40 -16 -46 -4 -12 25 30 27 61 28 61 4z m2558 -8
c32 -33 27 -42 -23 -42 -40 0 -90 31 -90 56 0 28 83 18 113 -14z m-2471 -22
c16 0 -21 -38 -43 -45 -10 -4 -24 -3 -30 0 -15 10 31 57 49 50 7 -3 18 -5 24
-5z m128 -4 c0 -31 -62 -68 -81 -49 -10 10 6 27 45 49 29 16 36 16 36 0z
m1915 -72 c34 -37 33 -64 -2 -64 -47 1 -80 33 -65 64 15 33 36 33 67 0z
m-2175 9 c-1 -30 -104 -83 -123 -64 -8 8 -6 15 8 25 11 8 29 21 40 30 20 16
75 22 75 9z m2317 -3 c29 -11 59 -53 48 -69 -2 -5 -24 -5 -47 -1 -67 13 -95
72 -37 79 3 1 20 -4 36 -9z m204 -29 c39 -40 37 -51 -12 -51 -43 0 -108 48
-94 70 14 22 76 11 106 -19z m190 -1 c37 -36 31 -50 -22 -50 -43 0 -107 48
-94 70 14 23 86 11 116 -20z m-2431 -8 c0 -27 -66 -67 -89 -53 -17 11 -3 39
28 56 36 20 61 19 61 -3z m-160 -7 c0 -16 -38 -38 -82 -49 -37 -9 -38 15 -2
43 31 25 84 28 84 6z m1962 -69 c22 -51 -16 -73 -68 -40 l-25 17 22 23 c29 31
56 30 71 0z m-2121 -17 c26 -13 12 -32 -42 -60 -89 -45 -133 -10 -52 41 51 33
64 35 94 19z m325 -33 c-18 -28 -56 -42 -79 -29 -21 11 -1 38 44 57 42 18 58
6 35 -28z m-158 25 c24 -15 -18 -51 -65 -56 -49 -4 -53 3 -20 32 34 31 62 39
85 24z m2121 -17 c32 -40 15 -60 -44 -54 -34 3 -66 55 -47 75 16 16 72 3 91
-21z m179 -9 c33 -39 29 -55 -17 -55 -60 0 -114 54 -83 84 14 15 77 -3 100
-29z m187 -7 c31 -36 22 -48 -38 -48 -40 0 -87 34 -87 65 0 32 94 20 125 -17z
m-657 -20 c7 -7 12 -29 12 -50 0 -44 -22 -51 -60 -20 l-23 19 23 31 c26 36 31
37 48 20z m-1633 -45 c8 -23 -37 -63 -71 -63 -36 0 -28 28 15 57 41 28 47 28
56 6z m1763 7 c15 0 52 -58 52 -82 0 -13 -8 -18 -29 -18 -41 0 -71 28 -78 74
-6 38 -5 39 18 33 13 -4 30 -7 37 -7z m-2128 -39 c-17 -33 -60 -60 -106 -67
-56 -8 -64 -1 -33 32 46 50 163 79 139 35z m170 8 c0 -37 -51 -69 -111 -69
-42 0 -33 26 21 63 27 19 90 23 90 6z m2164 -31 c56 -52 35 -87 -39 -67 -36
10 -55 33 -55 68 0 30 60 29 94 -1z m179 13 c29 -11 64 -78 49 -93 -14 -14
-97 -1 -112 17 -49 59 -12 104 63 76z m-613 -31 c28 -53 -23 -95 -56 -45 -16
24 -16 27 1 45 23 25 41 25 55 0z m-1480 -15 c15 -18 1 -39 -43 -62 -48 -25
-58 0 -17 42 38 40 43 41 60 20z m1589 -15 c48 -25 53 -121 6 -112 -37 7 -59
44 -51 87 7 37 15 41 45 25z m-1719 -24 c0 -23 -38 -63 -66 -70 -35 -9 -38 -4
-19 34 21 41 85 68 85 36z m-290 -30 c0 -33 -91 -96 -139 -96 -38 0 -39 9 -5
49 48 57 144 89 144 47z m160 17 c0 -28 -43 -73 -80 -84 -50 -15 -57 -9 -34
30 24 41 114 83 114 54z m1626 -29 c11 -42 -6 -66 -36 -51 -31 16 -38 46 -14
64 27 20 43 16 50 -13z m-1296 -7 c0 -21 -23 -43 -63 -59 -31 -13 -32 20 -1
53 34 35 64 39 64 6z m1708 -12 c33 -39 30 -75 -8 -75 -62 0 -90 30 -90 98 0
24 71 8 98 -23z m199 -16 c23 -19 43 -66 37 -83 -13 -34 -131 -11 -138 27 -3
12 -8 35 -11 51 l-6 29 52 -6 c28 -4 58 -12 66 -18z m-737 -34 c0 -66 -35 -95
-64 -53 -23 33 -20 46 16 68 36 22 48 18 48 -15z m240 15 c24 -24 27 -82 5
-100 -24 -20 -78 40 -69 77 12 51 30 57 64 23z m-1560 -16 c0 -20 -60 -74 -82
-74 -26 0 -23 36 7 65 27 28 75 34 75 9z m228 4 c17 -17 15 -24 -13 -52 -64
-64 -100 -33 -44 38 22 28 39 32 57 14z m-368 -23 c0 -49 -68 -105 -127 -105
-34 0 17 82 61 100 24 10 66 13 66 5z m1853 -43 c20 -24 31 -102 15 -103 -73
-7 -112 44 -92 118 7 25 49 16 77 -15z m-293 -3 c18 -33 9 -99 -13 -99 -21 0
-47 34 -47 62 0 61 36 83 60 37z m-1740 6 c0 -36 -73 -97 -124 -102 l-48 -6
15 29 c36 70 157 130 157 79z m1506 0 c7 -17 -1 -52 -15 -75 -13 -20 -51 14
-51 46 0 36 55 60 66 29z m-1111 -52 c-20 -36 -89 -82 -103 -69 -12 12 32 80
67 103 47 32 63 16 36 -34z m250 47 c16 -26 -34 -80 -75 -80 -13 0 -5 34 16
68 15 23 48 30 59 12z m739 -69 c-8 -37 -27 -49 -50 -30 -23 19 -14 62 16 70
34 8 41 -1 34 -40z m814 38 c50 -17 72 -109 29 -117 -58 -11 -107 30 -107 88
0 45 16 51 78 29z m-1450 -24 c3 -20 -50 -85 -69 -85 -14 0 -10 48 7 81 18 35
57 38 62 4z m858 -31 c7 -26 0 -60 -15 -84 -15 -22 -51 15 -51 52 0 63 52 88
66 32z m-1366 4 c0 -54 -56 -108 -111 -108 -37 0 33 105 81 123 26 10 30 8 30
-15z m1017 -19 c-7 -55 -28 -77 -50 -54 -31 30 -6 95 37 95 16 0 18 -6 13 -41z
m-747 16 c0 -30 -24 -63 -60 -84 -44 -25 -52 -20 -38 22 18 56 98 107 98 62z
m360 -7 c-1 -36 -56 -89 -74 -71 -9 10 -7 52 4 74 16 29 70 26 70 -3z m999 -4
c36 -30 47 -114 16 -114 -53 0 -100 52 -89 97 13 53 27 56 73 17z m-869 -8 c0
-29 -41 -91 -60 -91 -20 0 -25 49 -10 86 16 39 70 43 70 5z m128 -7 c4 -33
-29 -75 -51 -66 -20 8 -23 67 -5 85 21 21 53 10 56 -19z m-1048 -9 c0 -48 -79
-110 -139 -110 l-40 0 30 45 c17 25 43 52 57 60 31 16 92 20 92 5z m1380 -24
c9 -26 -7 -96 -22 -96 -44 0 -59 40 -33 90 19 36 42 39 55 6z m-840 7 c0 -54
-72 -145 -100 -128 -18 11 2 70 36 103 31 29 64 42 64 25z m1104 -51 c14 -27
5 -122 -12 -122 -21 0 -72 67 -72 95 0 73 51 90 84 27z m325 11 c20 -13 22
-20 17 -51 -3 -21 -6 -43 -6 -49 0 -18 -51 -16 -78 3 -18 12 -22 25 -22 70 l0
56 33 -7 c17 -4 43 -14 56 -22z m-1715 -48 c-19 -41 -59 -73 -103 -81 -37 -8
-37 -6 -7 55 23 45 50 66 106 83 22 7 24 -16 4 -57z m980 59 c23 -9 20 -60 -6
-102 -21 -35 -21 -35 -38 -14 -19 23 -16 63 8 100 16 25 15 24 36 16z m-564
-29 c0 -46 -58 -125 -91 -125 -27 0 -7 74 30 111 45 45 61 49 61 14z m140 -55
c0 -37 -65 -111 -80 -90 -31 47 34 179 67 134 7 -10 13 -30 13 -44z m288 48
c19 -19 14 -67 -10 -106 l-21 -35 -19 23 c-23 29 -23 57 2 98 21 35 30 38 48
20z m-145 -20 c20 -31 -34 -131 -61 -114 -19 12 -14 75 9 107 22 31 36 33 52
7z m541 -34 c6 -16 -23 -114 -35 -114 -10 0 -59 59 -59 71 0 5 9 28 20 49 20
39 21 40 44 24 14 -8 27 -22 30 -30z m-1121 -11 c-8 -51 -71 -123 -108 -123
-25 0 8 92 47 126 44 41 68 39 61 -3z m-299 5 c-21 -70 -52 -101 -118 -119
-48 -13 -52 -8 -36 41 23 69 57 93 138 99 20 1 22 -2 16 -21z m1704 -8 c54
-33 45 -168 -9 -140 -52 27 -69 51 -69 100 0 67 18 76 78 40z m-450 -43 c16
-26 16 -29 -8 -74 -32 -59 -42 -62 -66 -18 l-19 35 25 45 c28 51 43 53 68 12z
m-818 -58 c-7 -16 -31 -46 -54 -65 l-41 -35 -3 45 c-4 55 2 67 53 105 l40 30
9 -25 c5 -16 4 -36 -4 -55z m166 16 c10 -39 -3 -73 -46 -118 -45 -48 -50 -47
-52 17 0 42 4 52 38 87 45 46 52 47 60 14z m330 -48 c-9 -44 -46 -99 -64 -95
-37 7 -37 64 -1 118 l34 50 18 -22 c13 -16 17 -31 13 -51z m159 41 c14 -35 6
-63 -36 -116 l-17 -23 -16 23 c-23 32 -20 60 11 107 32 49 40 51 58 9z m423
10 l35 -21 -6 -61 c-9 -92 -13 -99 -48 -81 -57 30 -73 100 -37 168 11 22 13
21 56 -5z m-744 -24 c8 -40 -28 -115 -64 -134 -17 -9 -20 -6 -29 26 -12 42 -7
57 32 107 36 46 53 47 61 1z m-644 -11 c-12 -51 -40 -84 -91 -109 -55 -27 -58
-25 -48 32 11 57 22 72 74 95 63 29 74 26 65 -18z m1214 -34 c30 -36 32 -66 9
-131 -20 -58 -19 -58 -68 -8 l-38 39 27 66 c32 75 35 76 70 34z m-1062 -35
c-4 -46 -26 -80 -72 -111 -47 -32 -60 -30 -60 11 0 56 16 84 67 116 59 36 69
34 65 -16z m888 -36 c23 -38 18 -74 -17 -136 -24 -42 -26 -43 -43 -27 -43 38
-45 81 -9 140 39 64 43 65 69 23z m-716 0 c14 -55 6 -78 -43 -129 -52 -54 -74
-59 -79 -16 -6 51 16 101 60 135 50 38 54 39 62 10z m542 -100 c-3 -20 -23
-57 -43 -83 l-37 -47 -18 22 c-32 40 -17 106 45 194 l21 29 19 -40 c14 -29 18
-51 13 -75z m-362 71 c13 -69 8 -87 -43 -140 -58 -60 -71 -57 -71 14 0 48 4
57 46 105 53 61 59 63 68 21z m186 -55 c0 -43 -70 -143 -102 -144 -7 0 -21 37
-23 60 -1 22 23 67 64 123 l36 48 12 -28 c7 -15 12 -42 13 -59z"/>
<path d="M4422 6547 c4 -120 37 -202 152 -376 79 -119 88 -136 130 -256 62
-171 100 -215 188 -215 124 0 207 89 254 271 30 111 7 120 -156 59 -196 -74
-236 -40 -225 195 l6 141 -54 37 c-30 21 -106 85 -168 142 -63 57 -118 104
-123 105 -4 0 -7 -46 -4 -103z"/>
<path d="M567 6080 c-3 -11 -1 -18 3 -15 5 3 14 -3 20 -12 10 -16 10 -15 5 5
-4 15 -2 22 7 22 10 0 9 3 -2 10 -22 14 -27 12 -33 -10z"/>
</g>
</svg>
