<svg version="1.2" xmlns="http://www.w3.org/2000/svg" viewBox="0 0 512 512" preserveAspectRatio="xMidYMid meet"><g transform="translate(0.000000,512.000000) scale(0.100000,-0.100000)" fill="#000000" stroke="none"><path d="M0 3035 l0 -2086 63 54 c71 60 200 136 325 191 111 48 409 156 557 200 66 20 143 46 172 57 76 31 85 18 38 -57 -10 -17 -38 -43 -62 -58 -39 -23 -43 -29 -37 -53 4 -16 10 -35 14 -43 6 -10 -6 -23 -43 -45 -64 -38 -70 -60 -26 -95 l32 -27 -41 -38 c-54 -48 -54 -72 -2 -92 l41 -16 -28 -31 c-64 -69 -67 -75 -53 -91 7 -8 30 -18 51 -21 22 -4 39 -10 39 -13 0 -4 -16 -26 -35 -48 -19 -23 -35 -46 -35 -52 0 -17 37 -32 85 -35 24 -1 47 -5 50 -8 3 -3 -11 -29 -30 -57 -20 -29 -35 -60 -33 -69 4 -22 42 -27 91 -12 21 6 41 9 44 6 3 -3 -2 -25 -11 -49 -38 -99 -11 -131 86 -102 32 10 60 16 62 14 2 -2 0 -28 -6 -58 -11 -65 0 -101 33 -101 12 0 46 14 75 31 l54 30 0 -58 c0 -33 5 -64 12 -71 21 -21 63 -13 114 23 l49 35 10 -63 c6 -34 14 -68 18 -74 15 -24 55 -13 103 27 27 22 52 40 55 40 4 0 9 -15 12 -33 17 -102 50 -113 127 -41 53 49 58 48 74 -18 6 -25 11 -28 45 -28 33 0 45 7 81 46 23 25 43 44 44 42 1 -2 10 -22 21 -45 17 -41 20 -43 59 -43 40 0 43 3 75 55 46 76 56 82 71 46 16 -39 54 -74 77 -69 11 2 33 32 57 81 l39 77 48 -45 c26 -25 53 -45 58 -45 18 0 39 30 56 80 9 27 21 52 25 55 5 3 27 -6 49 -20 60 -38 85 -34 110 17 11 24 23 62 27 86 4 23 8 42 10 42 2 0 19 -11 39 -24 45 -31 91 -42 110 -26 17 14 35 72 35 114 0 27 2 28 33 23 95 -18 103 -18 120 -5 11 8 21 37 28 78 5 35 11 66 13 67 2 2 25 -2 53 -8 40 -9 55 -9 79 2 27 13 29 18 32 81 l3 67 72 0 c63 0 74 2 90 23 14 17 17 32 13 58 -14 78 -16 74 44 81 60 6 95 21 103 42 4 11 -6 47 -28 100 -6 14 -1 17 31 18 67 1 85 5 102 23 16 15 15 19 -6 59 -28 53 -28 57 6 57 15 0 44 5 66 11 37 10 38 12 33 46 -4 20 -13 43 -22 53 -20 22 -19 39 3 38 36 -3 90 13 106 31 21 23 13 43 -30 76 -19 14 -34 31 -34 38 0 17 54 39 76 30 10 -3 114 -58 229 -121 116 -63 287 -155 380 -204 94 -49 209 -116 258 -148 l87 -59 0 2069 0 2070 -1112 0 -1113 -1 75 -28 c276 -103 491 -302 634 -589 115 -229 177 -567 163 -888 l-6 -142 55 2 c51 1 58 -2 86 -33 29 -33 30 -37 25 -105 -5 -68 -40 -191 -152 -536 -24 -74 -51 -169 -60 -210 -22 -103 -32 -126 -71 -160 -39 -34 -91 -46 -134 -32 -16 6 -30 8 -30 4 0 -4 -5 -52 -10 -107 -11 -113 1 -284 24 -338 17 -41 44 -68 116 -114 30 -20 75 -52 100 -72 25 -19 47 -37 49 -38 2 -2 2 -5 -1 -8 -8 -8 -86 22 -118 45 -15 11 -42 23 -58 26 -29 6 -30 4 -57 -68 -87 -228 -250 -445 -481 -639 -248 -207 -534 -322 -799 -322 -142 0 -213 16 -335 75 -146 71 -281 230 -320 376 -6 24 -11 85 -11 135 -1 131 36 241 125 376 36 56 66 105 66 109 0 4 -23 32 -51 61 -104 109 -155 218 -195 416 -9 44 -17 81 -19 83 -1 2 -18 -6 -36 -17 -36 -22 -89 -27 -119 -11 -10 5 -27 24 -38 42 -18 30 -221 813 -237 914 -8 51 13 106 49 129 34 23 98 30 126 15 22 -12 22 -11 16 24 -130 694 99 1236 642 1514 54 28 139 65 188 81 l89 31 -1092 0 -1093 0 0 -2085z m3634 -1361 c31 -32 32 -40 5 -54 -16 -9 -26 -8 -45 5 -24 16 -29 31 -18 59 9 23 28 20 58 -10z m253 -5 c56 -27 61 -57 6 -34 -44 18 -86 55 -63 55 7 0 33 -9 57 -21z m-91 -30 c9 -10 14 -22 11 -25 -18 -18 -106 33 -93 54 9 14 58 -3 82 -29z m-2222 -69 c-22 -19 -48 -30 -84 -35 -31 -4 -60 -15 -72 -27 -27 -27 -69 -48 -81 -41 -13 8 44 63 65 63 11 0 36 11 56 25 20 14 44 25 53 25 9 0 32 6 50 14 46 19 51 10 13 -24z m2474 14 c13 -8 21 -21 19 -27 -10 -32 -74 -9 -98 34 -11 21 -10 22 22 15 18 -3 44 -13 57 -22z m-476 -21 c29 -26 23 -53 -11 -53 -38 0 -56 22 -41 49 13 25 27 26 52 4z m166 -9 c12 -8 27 -24 32 -35 10 -17 7 -19 -28 -19 -40 0 -82 28 -82 55 0 20 49 20 78 -1z m174 -11 c25 -22 23 -33 -7 -33 -29 0 -85 26 -85 39 0 27 59 24 92 -6z m-2626 -39 c-27 -15 -92 -27 -80 -15 9 9 68 29 89 29 16 1 14 -2 -9 -14z m264 0 c0 -18 -24 -44 -40 -44 -24 0 -25 8 -3 32 15 17 43 25 43 12z m1950 -60 c20 -52 2 -73 -45 -52 -29 13 -31 20 -9 53 21 32 42 32 54 -1z m529 -6 c17 -18 31 -37 31 -42 0 -17 -101 1 -122 22 -29 29 -17 52 26 52 27 0 42 -8 65 -32z m-364 -4 c30 -33 31 -41 5 -49 -30 -9 -94 25 -98 53 -3 19 1 22 33 22 26 0 43 -7 60 -26z m-2370 -4 c0 -8 -4 -15 -10 -16 -5 0 -23 -6 -39 -13 -40 -16 -46 -4 -12 25 30 27 61 28 61 4z m2558 -8 c32 -34 27 -42 -25 -42 -28 0 -46 7 -63 25 -35 34 -31 45 18 45 34 0 49 -6 70 -28z m-2471 -22 c16 0 -21 -38 -43 -45 -10 -4 -24 -3 -30 0 -15 10 31 57 49 50 7 -3 18 -5 24 -5z m128 -4 c0 -31 -62 -68 -81 -49 -10 10 6 27 45 49 29 16 36 16 36 0z m1915 -72 c34 -37 33 -64 -2 -64 -16 0 -39 9 -53 19 -21 17 -23 22 -12 45 15 33 36 33 67 0z m-2175 9 c-1 -30 -104 -83 -123 -64 -8 8 -6 15 8 25 11 8 29 21 40 30 20 16 75 22 75 9z m2317 -3 c29 -11 59 -53 48 -69 -2 -5 -24 -5 -47 -1 -67 13 -95 72 -37 79 3 1 20 -4 36 -9z m204 -29 c39 -40 37 -51 -12 -51 -32 0 -47 6 -70 30 -36 35 -31 50 17 50 26 0 44 -8 65 -29z m190 -1 c37 -36 31 -50 -22 -50 -32 0 -47 7 -70 30 -37 36 -31 50 22 50 32 0 47 -7 70 -30z m-2431 -8 c0 -27 -66 -67 -89 -53 -17 11 -3 39 28 56 36 20 61 19 61 -3z m-160 -7 c0 -16 -38 -38 -82 -49 -37 -9 -38 15 -2 43 31 25 84 28 84 6z m1962 -69 c22 -51 -16 -73 -68 -40 l-25 17 22 23 c29 31 56 30 71 0z m-2121 -17 c17 -8 18 -13 8 -25 -36 -43 -149 -72 -149 -39 0 16 84 75 108 75 7 0 22 -5 33 -11z m325 -33 c-18 -28 -56 -42 -79 -29 -21 11 -1 38 44 57 42 18 58 6 35 -28z m-158 25 c24 -15 -18 -51 -65 -56 -49 -4 -53 3 -20 32 34 31 62 39 85 24z m2121 -17 c27 -35 17 -54 -29 -54 -40 0 -57 13 -60 45 -4 33 -1 35 34 35 25 0 40 -7 55 -26z m179 -9 c33 -39 29 -55 -17 -55 -60 0 -114 54 -83 84 14 15 77 -3 100 -29z m187 -7 c31 -36 22 -48 -38 -48 -27 0 -45 7 -62 25 -40 39 -33 55 24 55 43 0 53 -4 76 -32z m-657 -20 c7 -7 12 -29 12 -50 0 -31 -4 -38 -19 -38 -10 0 -29 8 -41 18 l-23 19 23 31 c26 36 31 37 48 20z m-1633 -45 c8 -23 -37 -63 -71 -63 -36 0 -28 28 15 57 41 28 47 28 56 6z m1754 6 c31 -11 61 -52 61 -84 0 -21 -52 -20 -79 3 -22 18 -41 92 -24 92 6 0 24 -5 42 -11z m-2119 -38 c-17 -33 -60 -60 -106 -67 -56 -8 -64 -1 -33 32 30 33 74 53 117 54 29 0 32 -2 22 -19z m170 8 c0 -23 -21 -47 -51 -58 -36 -13 -89 -15 -89 -3 1 12 23 37 50 55 27 19 90 23 90 6z m2164 -31 c55 -51 39 -82 -34 -67 -39 9 -60 32 -60 66 0 20 5 23 34 23 22 0 44 -8 60 -22z m179 13 c29 -11 64 -78 49 -93 -14 -14 -97 -1 -112 17 -6 7 -15 27 -20 43 -7 25 -5 32 8 35 29 8 50 7 75 -2z m-613 -31 c15 -28 2 -70 -21 -70 -10 0 -26 11 -35 25 -16 24 -16 27 1 45 23 25 41 25 55 0z m-1480 -15 c15 -18 1 -39 -43 -62 -21 -10 -32 -12 -40 -4 -8 8 -1 21 23 46 38 40 43 41 60 20z m1589 -15 c24 -13 45 -64 37 -93 -5 -20 -11 -23 -31 -19 -37 7 -59 44 -51 87 7 37 15 41 45 25z m-1719 -24 c0 -23 -38 -63 -66 -70 -35 -9 -38 -4 -19 34 21 41 85 68 85 36z m-290 -30 c0 -14 -56 -69 -87 -85 -26 -13 -83 -15 -83 -2 0 14 49 70 74 83 26 14 78 26 89 21 4 -2 7 -10 7 -17z m160 17 c0 -28 -43 -73 -80 -84 -22 -7 -43 -10 -46 -6 -11 11 30 66 60 81 33 17 66 21 66 9z m1626 -29 c4 -14 3 -34 -2 -44 -8 -17 -12 -18 -34 -7 -31 16 -38 46 -14 64 27 20 43 16 50 -13z m-1296 -7 c0 -21 -23 -43 -63 -59 -31 -13 -32 20 -1 53 34 35 64 39 64 6z m1708 -12 c12 -14 22 -37 22 -51 0 -20 -5 -24 -30 -24 -62 0 -90 30 -90 98 0 24 71 8 98 -23z m199 -16 c23 -19 43 -66 37 -83 -13 -34 -131 -11 -138 27 -3 12 -8 35 -11 51 l-6 29 52 -6 c28 -4 58 -12 66 -18z m-737 -34 c0 -36 -18 -75 -34 -75 -16 0 -46 37 -46 57 0 16 60 54 72 47 4 -3 8 -16 8 -29z m240 15 c24 -24 27 -82 5 -100 -12 -10 -20 -7 -45 19 -25 24 -29 35 -24 58 4 15 9 31 11 36 8 13 33 7 53 -13z m-1560 -16 c0 -20 -60 -74 -82 -74 -26 0 -23 36 7 65 27 28 75 34 75 9z m228 4 c16 -16 15 -21 -5 -45 -45 -50 -98 -51 -73 -2 29 55 55 70 78 47z m-368 -23 c0 -3 -9 -23 -20 -45 -15 -30 -29 -41 -57 -49 -51 -14 -63 -14 -63 3 0 20 49 76 74 86 24 10 66 13 66 5z m1853 -43 c20 -24 31 -102 15 -103 -73 -7 -112 44 -92 118 5 19 9 20 34 12 15 -6 35 -18 43 -27z m-293 -3 c18 -33 9 -99 -13 -99 -21 0 -47 34 -47 62 0 61 36 83 60 37z m-1740 6 c0 -9 -17 -34 -38 -56 -31 -34 -46 -42 -86 -46 l-48 -6 15 29 c16 31 49 64 82 82 30 17 75 15 75 -3z m1506 0 c7 -17 -1 -52 -15 -75 -8 -12 -13 -12 -30 4 -12 11 -21 29 -21 42 0 36 55 60 66 29z m-1112 -51 c-19 -37 -87 -84 -102 -70 -12 12 32 80 67 103 45 31 60 17 35 -33z m251 46 c16 -26 -34 -80 -75 -80 -13 0 -5 34 16 68 15 23 48 30 59 12z m739 -69 c-8 -37 -27 -49 -50 -30 -23 19 -14 62 16 70 34 8 41 -1 34 -40z m814 38 c50 -17 72 -109 29 -117 -58 -11 -107 30 -107 88 0 35 3 40 24 40 12 0 37 -5 54 -11z m-1450 -24 c3 -20 -50 -85 -69 -85 -14 0 -10 48 7 81 18 35 57 38 62 4z m858 -31 c7 -26 0 -60 -15 -84 -8 -12 -13 -12 -30 4 -22 20 -28 65 -11 96 13 25 48 15 56 -16z m-1366 2 c0 -36 -41 -89 -78 -100 -18 -5 -35 -6 -39 -3 -17 17 47 105 87 120 26 10 30 8 30 -17z m1017 -17 c-3 -23 -12 -48 -20 -56 -23 -23 -48 8 -40 50 7 35 18 47 47 47 16 0 18 -6 13 -41z m-747 16 c0 -30 -24 -63 -60 -84 -20 -11 -40 -18 -43 -15 -10 11 15 69 40 92 27 25 63 29 63 7z m360 -7 c-1 -27 -17 -50 -46 -66 -25 -13 -34 -7 -34 25 0 41 18 63 50 63 25 0 30 -4 30 -22z m999 -4 c26 -22 31 -33 31 -70 0 -49 -11 -55 -60 -29 -37 19 -52 47 -44 82 13 53 27 56 73 17z m-869 -8 c0 -29 -41 -91 -60 -91 -20 0 -25 49 -10 86 10 23 19 29 41 29 24 0 29 -4 29 -24z m128 -7 c4 -33 -29 -75 -51 -66 -20 8 -23 67 -5 85 21 21 53 10 56 -19z m-1048 -9 c0 -19 -45 -79 -71 -94 -15 -9 -45 -16 -68 -16 l-40 0 30 45 c17 25 43 52 57 60 31 16 92 20 92 5z m1380 -24 c9 -26 -7 -96 -22 -96 -22 0 -48 22 -48 41 0 30 28 79 46 79 8 0 19 -11 24 -24z m-840 7 c0 -5 -5 -24 -10 -44 -11 -38 -72 -95 -90 -84 -18 11 2 70 36 103 31 29 64 42 64 25z m1104 -51 c11 -22 12 -38 4 -75 -5 -26 -12 -47 -16 -47 -3 0 -21 14 -39 32 -37 36 -44 79 -17 116 12 18 19 20 34 12 11 -6 26 -23 34 -38z m325 11 c20 -13 22 -20 17 -51 -3 -21 -6 -43 -6 -49 0 -18 -51 -16 -78 3 -18 12 -22 25 -22 70 l0 56 33 -7 c17 -4 43 -14 56 -22z m-1705 -23 c-9 -41 -63 -96 -104 -105 -17 -4 -34 -5 -36 -2 -3 3 6 27 20 55 23 46 48 66 106 84 20 7 21 6 14 -32z m970 34 c23 -9 20 -60 -6 -102 -21 -35 -21 -35 -38 -14 -19 23 -16 63 8 100 16 25 15 24 36 16z m-564 -29 c0 -35 -24 -79 -56 -104 -37 -29 -44 -27 -44 15 0 29 8 44 39 75 45 45 61 49 61 14z m140 -55 c0 -16 -14 -42 -35 -66 -29 -32 -36 -36 -45 -24 -20 30 -11 78 22 116 30 33 33 35 45 18 7 -10 13 -30 13 -44z m288 48 c19 -19 14 -67 -10 -106 l-21 -35 -19 23 c-23 29 -23 57 2 98 21 35 30 38 48 20z m-145 -20 c6 -8 7 -27 3 -41 -8 -35 -50 -82 -64 -73 -19 12 -14 75 9 107 22 31 36 33 52 7z m541 -34 c6 -16 -23 -114 -35 -114 -10 0 -59 59 -59 71 0 5 9 28 20 49 20 39 21 40 44 24 14 -8 27 -22 30 -30z m-1121 -11 c-7 -46 -24 -71 -64 -98 -48 -31 -49 -31 -49 0 0 46 48 114 90 127 23 8 28 1 23 -29z m-299 5 c-12 -42 -34 -77 -56 -93 -27 -18 -97 -39 -106 -31 -10 11 21 86 45 111 23 22 46 30 101 34 20 1 22 -2 16 -21z m1704 -8 c30 -18 32 -24 32 -72 0 -69 -10 -84 -41 -68 -52 27 -69 51 -69 100 0 26 3 50 7 53 12 12 37 7 71 -13z m-450 -43 c16 -26 16 -29 -8 -74 -14 -26 -30 -48 -36 -50 -6 -2 -19 12 -30 32 l-19 35 25 45 c28 51 43 53 68 12z m-818 -58 c-7 -16 -31 -46 -54 -65 l-41 -35 -3 45 c-4 55 2 67 53 105 l40 30 9 -25 c5 -16 4 -36 -4 -55z m166 16 c3 -14 3 -37 0 -51 -8 -29 -81 -112 -91 -103 -3 4 -6 28 -7 53 0 42 4 52 38 87 21 21 42 39 46 39 4 0 10 -11 14 -25z m330 -48 c-9 -44 -46 -99 -64 -95 -9 2 -20 18 -26 35 -8 29 -5 39 25 83 l34 50 18 -22 c13 -16 17 -31 13 -51z m159 41 c14 -35 6 -63 -36 -116 l-17 -23 -16 23 c-9 12 -16 32 -16 44 0 24 48 104 62 104 5 0 15 -15 23 -32z m423 10 l35 -21 -6 -61 c-9 -92 -13 -99 -48 -81 -45 24 -62 57 -54 107 8 44 21 78 32 78 3 0 21 -10 41 -22z m-744 -24 c6 -28 2 -44 -19 -79 -33 -58 -61 -74 -71 -43 -13 43 -5 78 26 118 39 49 56 50 64 4z m-644 -11 c-5 -20 -17 -48 -28 -62 -18 -25 -101 -72 -113 -65 -10 6 9 95 23 112 15 18 86 51 109 52 14 0 16 -6 9 -37z m1214 -34 c14 -17 26 -43 26 -57 0 -29 -30 -122 -40 -122 -3 0 -23 18 -45 40 l-38 39 27 66 c16 36 32 65 36 65 5 0 20 -14 34 -31z m-1062 -35 c-2 -21 -11 -50 -21 -64 -21 -29 -78 -70 -97 -70 -17 0 -19 56 -4 94 9 26 97 88 115 82 5 -1 8 -20 7 -42z m888 -36 c23 -38 18 -74 -17 -136 -24 -42 -26 -43 -43 -27 -11 10 -24 33 -31 52 -10 31 -8 39 22 88 18 30 37 55 41 55 5 0 17 -14 28 -32z m-716 0 c14 -55 6 -78 -43 -129 -52 -54 -74 -59 -79 -16 -6 51 16 101 60 135 50 38 54 39 62 10z m542 -100 c-3 -20 -23 -57 -43 -83 l-37 -47 -18 22 c-32 40 -17 106 45 194 l21 29 19 -40 c14 -29 18 -51 13 -75z m-362 71 c13 -69 8 -87 -43 -140 -27 -28 -54 -48 -60 -44 -6 3 -11 30 -11 58 0 48 4 57 46 105 25 28 49 52 54 52 4 0 10 -14 14 -31z m186 -55 c0 -43 -70 -143 -102 -144 -7 0 -21 37 -23 60 -1 22 23 67 64 123 l36 48 12 -28 c7 -15 12 -42 13 -59z"/><path d="M3023 4524 l-30 -37 -95 2 c-80 1 -117 -4 -239 -35 -167 -42 -344 -56 -452 -34 -128 25 -222 12 -350 -49 -81 -39 -131 -79 -181 -144 -53 -71 -73 -118 -96 -233 -23 -114 -46 -173 -102 -261 -39 -62 -83 -161 -75 -170 9 -8 245 36 299 56 73 27 168 27 320 2 145 -25 269 -65 321 -102 37 -27 47 -29 127 -29 82 0 91 2 162 40 170 89 476 135 614 91 33 -10 100 -24 149 -30 50 -7 102 -15 118 -17 25 -5 27 -3 27 26 0 51 -45 170 -106 281 -62 114 -77 152 -99 246 -19 80 -65 183 -107 235 -17 22 -55 56 -84 74 -36 23 -53 41 -57 61 -3 15 -12 36 -20 47 -13 17 -15 16 -44 -20z"/><path d="M1698 3496 c-105 -28 -155 -97 -145 -201 14 -141 66 -239 150 -279 78 -38 206 -53 315 -37 145 21 193 62 262 227 41 98 40 146 -2 188 -85 85 -424 144 -580 102z"/><path d="M2903 3490 c-171 -37 -253 -81 -269 -145 -4 -15 -1 -51 5 -80 14 -62 74 -191 103 -222 55 -59 217 -85 366 -59 137 24 186 54 230 141 35 71 55 154 50 216 -5 67 -32 104 -103 142 -58 31 -253 34 -382 7z"/><path d="M1180 3330 c0 -32 14 -123 30 -202 29 -134 117 -474 127 -491 3 -4 19 6 36 23 36 35 42 36 84 11 55 -34 80 -93 118 -279 67 -332 119 -418 334 -559 47 -31 109 -77 137 -102 125 -114 226 -161 362 -169 149 -8 272 34 431 147 53 37 140 94 194 125 126 74 224 165 270 254 46 88 59 135 107 397 58 319 123 547 186 646 21 34 72 80 157 142 55 41 89 117 52 117 -28 0 -72 -28 -142 -90 -74 -66 -77 -66 -88 15 -8 67 -17 80 -42 67 -34 -19 -43 -38 -73 -151 -34 -130 -55 -174 -107 -224 -79 -77 -212 -112 -390 -103 -227 11 -273 44 -372 261 -34 77 -70 146 -79 153 -9 6 -31 12 -49 12 -40 0 -50 -14 -119 -173 -37 -84 -61 -124 -99 -163 -68 -71 -125 -88 -300 -88 -214 -1 -327 37 -391 131 -25 38 -71 178 -80 245 -4 27 -15 55 -26 64 -17 16 -20 16 -34 2 -9 -9 -18 -41 -21 -76 -3 -34 -10 -59 -14 -56 -5 3 -9 14 -9 25 0 56 -102 149 -163 149 -26 0 -27 -2 -27 -60z m213 -245 c18 -17 67 -218 67 -271 l0 -35 -74 60 c-83 68 -102 104 -93 178 8 71 61 107 100 68z m1371 -360 c3 -9 6 -34 6 -54 0 -48 -24 -71 -82 -78 -24 -3 -54 -15 -68 -28 -76 -69 -155 -72 -244 -10 -52 36 -60 38 -121 36 -61 -2 -68 0 -95 28 -33 32 -36 47 -19 85 20 43 60 46 52 4 -2 -13 2 -31 9 -41 11 -15 18 -16 41 -8 49 19 81 12 157 -34 41 -24 86 -45 101 -45 14 0 45 13 70 29 36 23 50 40 69 86 14 35 31 60 44 65 25 9 70 -11 80 -35z m-309 -468 c28 0 84 3 125 8 82 8 160 -6 243 -45 61 -29 67 -48 19 -55 -20 -2 -75 -14 -122 -26 -237 -59 -355 -62 -549 -14 -80 20 -111 24 -133 16 -37 -13 -36 1 5 35 71 60 192 97 292 88 39 -4 93 -7 120 -7z m114 -292 c9 -9 -7 -16 -67 -27 -48 -9 -77 -8 -134 2 -73 13 -73 13 -43 27 22 10 57 12 135 8 57 -3 106 -8 109 -10z"/><path d="M1862 1677 c3 -96 6 -108 46 -191 23 -49 71 -132 106 -185 79 -119 88 -136 130 -256 62 -171 100 -215 188 -215 49 0 133 36 165 71 46 51 115 244 100 283 -9 23 -62 15 -167 -24 -135 -52 -175 -48 -212 20 -18 32 -19 48 -13 175 l6 141 -54 37 c-30 21 -106 85 -168 142 -63 57 -118 104 -123 105 -4 0 -7 -46 -4 -103z"/></g></svg>